<svg width="26" height="26" viewBox="0 0 26 26" fill="none" xmlns="http://www.w3.org/2000/svg">
<path d="M20.5931 7.25946L8.25996 19.5926C7.85804 19.9945 7.20641 19.9945 6.8045 19.5926L6.72789 19.516C6.32598 19.1141 6.32598 18.4624 6.72789 18.0605L19.061 5.7274C19.4629 5.32548 20.1146 5.32548 20.5165 5.7274L20.5931 5.804C20.995 6.20591 20.995 6.85755 20.5931 7.25946Z" fill="#333347"/>
<path d="M19.0609 19.5921L6.72773 7.25898C6.32582 6.85707 6.32582 6.20543 6.72773 5.80352L6.80433 5.72692C7.20625 5.325 7.85788 5.325 8.2598 5.72692L20.5929 18.06C20.9948 18.462 20.9948 19.1136 20.5929 19.5155L20.5163 19.5921C20.1144 19.994 19.4628 19.994 19.0609 19.5921Z" fill="#333347"/>
</svg>
