<svg width="34" height="15" viewBox="0 0 54 15" fill="none" xmlns="http://www.w3.org/2000/svg">
<path d="M11.7656 10.6562H10.5312V5.70312H7.45312V4.67188H10.5312V0.390625H11.7656V10.6562ZM7.51562 1.45312C7.51042 2.61979 7.24219 3.69792 6.71094 4.6875C6.17969 5.67708 5.42708 6.54167 4.45312 7.28125C3.47917 8.01562 2.32812 8.59896 1 9.03125L0.46875 8.04688C1.54688 7.69271 2.4974 7.23958 3.32031 6.6875C4.14323 6.13542 4.80208 5.5026 5.29688 4.78906C5.79167 4.07552 6.08333 3.30729 6.17188 2.48438H1.17188V1.45312H7.51562ZM12.125 13.9688H2.92188V9.60938H4.17188V12.9375H12.125V13.9688ZM25.6094 14.2969H24.375V5.98438H20.0469V4.96875H24.375V0.375H25.6094V14.2969ZM16.0781 9.89062C17.25 9.88021 18.3151 9.83594 19.2734 9.75781C20.2318 9.67448 21.1979 9.53125 22.1719 9.32812L22.3281 10.3438C21.2708 10.5573 20.237 10.7083 19.2266 10.7969C18.2161 10.8802 17.1094 10.9219 15.9062 10.9219H14.8438V1.9375H16.0781V9.89062ZM39.5156 14.2812H38.2812V0.390625H39.5156V14.2812ZM27.8125 8.07812C29.8229 8.07812 31.5729 8.05729 33.0625 8.01562C34.5573 7.97396 36.0156 7.86979 37.4375 7.70312L37.5 8.60938C36.1979 8.79688 34.7917 8.92969 33.2812 9.00781V13.8125H32.0469V9.0625C31.0885 9.09375 29.7292 9.10938 27.9688 9.10938L27.8125 8.07812ZM36.8281 6.375H33.0625V1.39062H36.7344V2.42188H34.2656V5.375H36.8281V6.375ZM32.3125 2.42188H29.9375V5.375C30.375 5.36458 30.7969 5.34115 31.2031 5.30469C31.6094 5.26302 32.0312 5.19271 32.4688 5.09375L32.5625 6.07812C32 6.20312 31.4766 6.28385 30.9922 6.32031C30.513 6.35677 29.9583 6.375 29.3281 6.375H28.7344V1.39062H32.3125V2.42188ZM53.2188 14.2656H51.9844V0.375H53.2188V14.2656ZM49.1094 1.89062C49.099 3.98958 48.5677 5.875 47.5156 7.54688C46.4635 9.21354 44.8177 10.5833 42.5781 11.6562L41.9062 10.6562C43.7604 9.77604 45.1797 8.68229 46.1641 7.375C47.1536 6.06771 47.7188 4.57292 47.8594 2.89062H42.5469V1.89062H49.1094Z" fill="#333347"/>
</svg>
