<svg width="385" height="90" viewBox="0 0 385 90" fill="none" xmlns="http://www.w3.org/2000/svg">
<path d="M161.053 36.7823V11.0943H170.477V82.0783H161.053V45.5983H153.985V80.4063H144.789V12.2343H153.985V36.7823H161.053ZM122.749 61.9383C128.17 61.9383 133.82 61.533 139.697 60.7223L140.609 69.2343C137.518 69.8423 134.453 70.2476 131.413 70.4503C128.424 70.7036 125.13 70.8303 121.533 70.8303H110.133V15.9583H120.013V61.9383H122.749ZM228.523 47.9543V11.0943H238.251V47.9543H228.523ZM199.035 37.3903C195.286 41.9503 189.434 46.0543 181.479 49.7023L177.147 41.7223C183.177 38.885 187.61 35.9463 190.447 32.9063C193.285 29.8156 194.83 26.3956 195.083 22.6463H179.959V14.1343H219.935V22.6463H204.659C204.507 25.3316 204.077 27.6876 203.367 29.7143L222.671 39.9743L218.187 48.1823L199.035 37.3903ZM199.719 58.0623H228.523V51.0703H238.251V82.0783H189.991V51.0703H199.719V58.0623ZM199.719 66.4983V73.4903H228.523V66.4983H199.719ZM295.082 28.5743H305.266V36.2503H253.206V28.5743H263.314V19.7583H253.206V12.0823H305.266V19.7583H295.082V28.5743ZM285.658 19.7583H272.738V28.5743H285.658V19.7583ZM245.758 48.1063V40.4303H312.638V48.1063H245.758ZM304.886 70.7543H263.238V74.7823H306.786V82.4583H253.586V63.4583H295.158V59.5823H253.206V52.1343H304.886V70.7543ZM368.556 38.0743H361.564V62.0903H352.672V11.8543H361.564V29.4863H368.556V11.0943H377.752V64.2943H368.556V38.0743ZM348.492 54.0343C343.223 55.149 336.763 55.7063 329.112 55.7063H317.028V30.6263H336.256V23.1783H317.028V14.5143H345.072V39.0623H325.92V46.9663H330.86C336.028 46.9663 341.576 46.5356 347.504 45.6743L348.492 54.0343ZM337.928 60.6463V73.2623H380.26V82.0783H328.2V60.6463H337.928Z" fill="black"/>
<path d="M48.2121 5.79865L82.6076 30.5942C83.7873 31.4446 84.4864 32.8103 84.4864 34.2645V76.6361C84.4864 80.3845 81.4477 83.4231 77.6994 83.4231H10.787C7.03862 83.4231 4 80.3845 4 76.6361V34.2645C4 32.8103 4.69902 31.4446 5.87871 30.5942L40.2743 5.79864C42.6444 4.09006 45.842 4.09006 48.2121 5.79865Z" fill="#4169E1" stroke="#4169E1" stroke-width="7.08422"/>
<path fill-rule="evenodd" clip-rule="evenodd" d="M25.9111 34.6719H62.5816V43.1657L62.584 43.1685L62.5816 43.1705V43.1729H62.5788L39.1806 63.1719H62.5816V71.6729H25.9111V63.1719H25.9159L25.9116 63.1673L49.2925 43.1729H25.9111V34.6719Z" fill="white"/>
</svg>
