<svg width="99" height="23" viewBox="0 0 99 23" fill="none" xmlns="http://www.w3.org/2000/svg">
<path d="M41.3555 9.10697V2.54576H43.7626V20.6765H41.3555V11.3587H39.5502V20.2494H37.2013V2.83693H39.5502V9.10697H41.3555ZM31.5719 15.5323C32.9566 15.5323 34.3996 15.4288 35.9007 15.2217L36.1337 17.3958C35.3443 17.5511 34.5613 17.6547 33.7848 17.7064C33.0213 17.7711 32.1801 17.8035 31.2613 17.8035H28.3495V3.78812H30.8731V15.5323H31.5719ZM58.5887 11.9605V2.54576H61.0735V11.9605H58.5887ZM51.0569 9.26227C50.0993 10.427 48.6046 11.4752 46.5728 12.407L45.4663 10.3687C47.0063 9.64403 48.1387 8.89344 48.8634 8.11697C49.5881 7.32755 49.9828 6.45401 50.0475 5.49636H46.1845V3.32223H56.3952V5.49636H52.4934C52.4546 6.18225 52.3446 6.78402 52.1634 7.30167L57.094 9.92227L55.9487 12.0188L51.0569 9.26227ZM51.2316 14.5423H58.5887V12.7564H61.0735V20.6765H48.7469V12.7564H51.2316V14.5423ZM51.2316 16.697V18.4829H58.5887V16.697H51.2316ZM75.5891 7.01049H78.1902V8.97109H64.8931V7.01049H67.4749V4.75871H64.8931V2.79811H78.1902V4.75871H75.5891V7.01049ZM73.182 4.75871H69.882V7.01049H73.182V4.75871ZM62.9907 11.9993V10.0387H80.0732V11.9993H62.9907ZM78.0932 17.7841H67.4555V18.8129H78.5785V20.7735H64.9902V15.9205H75.6085V14.9305H64.8931V13.0282H78.0932V17.7841ZM94.3558 9.43697H92.57V15.5711H90.2988V2.73987H92.57V7.24343H94.3558V2.54576H96.7047V16.1341H94.3558V9.43697ZM89.2311 13.5135C87.8852 13.7982 86.2352 13.9405 84.2811 13.9405H81.1946V7.53461H86.1058V5.63224H81.1946V3.41929H88.3576V9.68933H83.4658V11.7082H84.7276C86.0476 11.7082 87.4646 11.5982 88.9788 11.3782L89.2311 13.5135ZM86.5329 15.2023V18.4247H97.3453V20.6765H84.0481V15.2023H86.5329Z" fill="#DADAE1"/>
<path d="M12.2926 1.79525L21.0779 8.12851C21.3792 8.34573 21.5578 8.69454 21.5578 9.06599V19.8885C21.5578 20.8459 20.7817 21.622 19.8243 21.622H2.73352C1.77612 21.622 1 20.8459 1 19.8885V9.06599C1 8.69454 1.17854 8.34573 1.47986 8.12851L10.2652 1.79525C10.8705 1.35884 11.6873 1.35884 12.2926 1.79525Z" fill="#E4E8F4" stroke="#E4E8F4" stroke-width="1.80945"/>
<path fill-rule="evenodd" clip-rule="evenodd" d="M6.59669 9.16992H15.963V11.3392L15.9638 11.3401L15.963 11.3408V11.3412H15.9625L9.98611 16.4494H15.963V18.6207H6.59668V16.4494H6.59811L6.59699 16.4482L12.5689 11.3412H6.59669V9.16992Z" fill="white"/>
</svg>
