<svg width="21" height="23" viewBox="0 0 21 23" fill="none" xmlns="http://www.w3.org/2000/svg">
<path fill-rule="evenodd" clip-rule="evenodd" d="M8.716 22.8359C8.487 22.8359 8.29163 22.6649 8.25951 22.4385L7.84151 19.4506L7.39139 19.2622C6.7779 19.0049 6.19653 18.671 5.66528 18.2703L5.27816 17.9783L2.46281 19.1174C2.40744 19.1399 2.34969 19.1515 2.29044 19.1515C2.12581 19.1515 1.97269 19.0628 1.89169 18.9212L0.0833333 15.7906C-0.0297907 15.5932 0.0189589 15.3377 0.199082 15.1976L2.57843 13.3392L2.51669 12.8561C2.47431 12.5172 2.45119 12.1756 2.45119 11.836C2.45119 11.5137 2.47169 11.1863 2.51031 10.8609L2.56694 10.3823L0.177332 8.51494C-0.0040409 8.37403 -0.0529155 8.11872 0.0615835 7.92054L1.86732 4.79115C1.94969 4.64837 2.10269 4.5596 2.26731 4.5596C2.32644 4.5596 2.38431 4.57123 2.44094 4.59373L5.24079 5.72651L5.62791 5.42931C6.15528 5.02659 6.73402 4.68963 7.34752 4.42844L7.79389 4.23864L8.21451 1.23341C8.24663 1.00698 8.44213 0.835938 8.671 0.835938H12.2838C12.5128 0.835938 12.7082 1.00698 12.7403 1.23341L13.1583 4.22126L13.6085 4.40969C14.2219 4.667 14.8033 5.00083 15.3346 5.40155L15.7217 5.69362L18.537 4.55447C18.5924 4.53197 18.6502 4.52034 18.7094 4.52034C18.874 4.52034 19.0272 4.60911 19.1082 4.75064L20.9165 7.88128C21.0296 8.07871 20.9809 8.33414 20.8006 8.4743L18.42 10.3333L18.483 10.8183C18.5268 11.1566 18.5485 11.4969 18.5485 11.8359C18.5485 12.1582 18.528 12.4843 18.4882 12.8085L18.4303 13.289L20.8239 15.1569C21.0039 15.2978 21.0529 15.5532 20.9384 15.752L19.1327 18.8806C19.0503 19.0234 18.8973 19.1122 18.7327 19.1122C18.6748 19.1122 18.6169 19.1005 18.5617 19.078L15.7592 17.9452L15.3721 18.2424C14.8434 18.6464 14.2647 18.9835 13.6525 19.2433L13.2061 19.4324L12.7855 22.4382C12.7533 22.6646 12.5578 22.8357 12.329 22.8357H8.716V22.8359Z" fill="#DADAE1"/>
<circle cx="10.5385" cy="11.8353" r="2.53846" fill="white" stroke="white" stroke-width="1.5"/>
</svg>
