<svg width="68" height="67" viewBox="0 0 68 67" fill="none" xmlns="http://www.w3.org/2000/svg">
<circle cx="34" cy="33.5" r="33.5" fill="white"/>
<circle cx="34" cy="33.5" r="33" stroke="black" stroke-opacity="0.05"/>
<path d="M50.5272 29.8008H51.497C51.5617 29.8008 51.6102 29.7469 51.6102 29.6876V27.8666C51.6102 27.8019 51.5617 27.748 51.497 27.748H50.1393C48.5661 27.748 47.731 28.2491 47.2568 29.3213L44.2989 36.5679C44.1211 36.9989 43.8625 37.2036 43.3507 37.2036V27.8666C43.3507 27.8019 43.3022 27.748 43.2375 27.748H41.0663C41.0016 27.748 40.9531 27.8019 40.9531 27.8666V39.057C40.9531 39.1648 41.0447 39.2564 41.1579 39.2564H43.5931C45.1664 39.2564 45.8829 38.7553 46.3625 37.6831L49.2826 30.5281C49.5197 30.0217 49.8537 29.8008 50.538 29.8008" fill="#D71921"/>
<path d="M23.9607 33.5022C24.8335 33.1412 25.5555 32.3277 25.5555 30.9753C25.5555 28.9657 23.8314 27.748 21.7517 27.748H15.3241C15.2594 27.748 15.2109 27.8019 15.2109 27.8612V29.6876C15.2109 29.7523 15.2648 29.8008 15.3241 29.8008H21.3045C22.2689 29.8008 22.9209 30.3934 22.9209 31.1154C22.9209 31.8374 22.2689 32.43 21.3045 32.43H17.754V31.0723C17.754 31.0077 17.7001 30.9592 17.6408 30.9592H15.3295C15.2648 30.9592 15.2163 31.0077 15.2163 31.0723V39.1378C15.2163 39.2025 15.2702 39.251 15.3295 39.251H21.6601C24.0254 39.251 25.7225 38.1465 25.7225 35.8944C25.7225 34.7899 25.0706 33.874 23.9607 33.4968M21.4284 37.2467H17.754V34.5474H21.4284C22.4198 34.5474 23.0879 35.1509 23.0879 35.8944C23.0879 36.6379 22.4198 37.2413 21.4284 37.2413" fill="#D71921"/>
<path d="M52.775 39.1284L49.0466 34.3603C49.0466 34.3603 49.0197 34.3495 49.0143 34.3603L48.0122 36.8171C48.0122 36.8171 48.0068 36.8494 48.0122 36.8602L49.6447 39.0476C49.7578 39.2039 49.8925 39.2578 50.0811 39.2578H52.7049C52.7804 39.2578 52.8127 39.1823 52.7696 39.1284" fill="#D71921"/>
<path d="M29.805 30.9648H27.6283C27.5636 30.9648 27.5098 31.0133 27.5098 31.078V39.1435C27.5098 39.2082 27.5636 39.2566 27.6283 39.2566H29.805C29.8642 39.2566 29.9181 39.2028 29.9181 39.1435V31.078C29.9181 31.0133 29.8642 30.9648 29.805 30.9648Z" fill="#D71921"/>
<path d="M38.7541 27.7476H36.5828C36.5181 27.7476 36.4697 27.8015 36.4697 27.8607V37.1978C35.9578 37.1978 35.6992 36.993 35.5214 36.562L32.5635 29.3154C32.084 28.2486 31.2489 27.7422 29.6757 27.7422H27.6283C27.5636 27.7422 27.5098 27.7961 27.5098 27.8553V29.6818C27.5098 29.7411 27.5636 29.7949 27.6283 29.7949H29.2877C29.972 29.7949 30.3114 30.0158 30.5431 30.5223L33.4633 37.6773C33.9374 38.7494 34.6594 39.2505 36.2272 39.2505H38.6625C38.7756 39.2505 38.8672 39.1589 38.8672 39.0458V27.8607C38.8672 27.7961 38.8133 27.7476 38.7541 27.7476Z" fill="#D71921"/>
</svg>
