<svg width="68" height="67" viewBox="0 0 68 67" fill="none" xmlns="http://www.w3.org/2000/svg">
<circle cx="34" cy="33.5" r="33.5" fill="white"/>
<circle cx="34" cy="33.5" r="33" stroke="black" stroke-opacity="0.05"/>
<path d="M31.5996 25.4842C31.5996 26.7171 32.6428 27.7603 33.8757 27.7603C35.1086 27.7603 36.1518 26.7171 36.1518 25.4842C36.1518 25.2946 36.1518 25.1049 36.057 24.9152C35.8673 24.5358 35.6776 24.3462 35.6776 23.7771C35.6776 23.1133 34.8241 23.1133 34.4447 23.1133C33.9706 23.1133 33.4015 23.1133 32.9273 23.3978C32.548 23.5875 32.2635 23.872 32.0738 24.1565C31.8841 24.5358 31.6944 24.9152 31.6944 25.2946" fill="#D80C18"/>
<path d="M45.2562 28.328C45.2562 28.328 44.782 28.0435 44.213 28.2332C43.3594 28.4228 40.704 28.897 36.5311 29.0867C34.6343 29.0867 32.4531 29.0867 30.3666 28.9919C28.6595 28.8022 25.3402 28.328 24.5815 28.2332C24.2022 28.2332 23.2538 28.1383 22.8744 28.5177C22.3054 28.9919 22.4002 29.7506 22.8744 30.4144C22.8744 30.4144 23.6331 31.6473 25.5299 32.0267C28.1854 32.5009 32.3582 32.3112 33.686 32.2164C36.7208 31.9318 39.0917 31.4577 40.8936 30.9835C40.8936 30.9835 43.3594 30.3196 44.5923 29.5609C45.0665 29.2764 45.7304 28.8022 45.4458 28.328H45.2562Z" fill="#008E71"/>
<path d="M36.2486 33.8277C34.7312 32.9741 32.9293 32.9741 31.4119 33.8277C29.0409 35.1554 28.1874 38.1902 29.61 40.656C30.748 42.4579 32.3603 42.0786 32.7396 41.6044C33.3087 40.9405 33.119 40.3715 32.7396 39.9921C32.1706 39.2334 32.0758 38.7592 32.0758 38.3799C32.0758 37.4315 32.8345 36.578 33.8777 36.578C34.3519 36.578 34.9209 36.7676 35.2054 37.2418C35.6796 37.8108 35.6796 38.5695 35.6796 39.2334C35.4899 43.0269 33.9725 46.2514 33.8777 46.4411C33.8777 46.6308 33.688 47.0101 33.9725 47.1998C34.257 47.2946 34.5415 47.1998 34.8261 46.9153C35.4899 46.3463 36.9125 44.6392 37.5764 42.9321C37.9557 41.9837 38.9041 39.6128 38.6196 37.2418C38.3351 35.4399 37.1022 34.3018 36.059 33.7328L36.2486 33.8277Z" fill="#008E71"/>
</svg>
