<svg width="68" height="67" viewBox="0 0 68 67" fill="none" xmlns="http://www.w3.org/2000/svg">
<circle cx="34" cy="33.5" r="33.5" fill="white"/>
<circle cx="34" cy="33.5" r="33" stroke="black" stroke-opacity="0.05"/>
<path d="M50.1079 35.4411L49.8514 35.2781C48.9815 34.4116 47.7718 34.0338 46.1532 34.1309C44.8049 34.2141 43.7373 34.7478 42.9193 35.2435C42.9193 35.2296 42.9193 35.2192 42.9193 35.2054C42.9193 34.7825 42.9678 34.325 43.0129 33.8813C43.058 33.4307 43.11 32.9698 43.11 32.5365C43.11 32.1032 43.0614 31.67 42.9055 31.3095C42.8673 31.2159 42.7807 31.1639 42.6732 31.1639C42.2365 31.1743 41.3873 31.4724 41.1794 31.6527L41.0684 31.8987C41.0615 32.3805 40.9541 33.7288 40.8466 33.8917C40.8501 33.8848 40.7912 34.0546 40.7912 34.0546C40.6075 35.9783 40.604 37.6663 40.7738 39.1185C40.7946 39.2641 41.0719 39.4825 41.2903 39.5622C41.526 39.6488 42.2677 39.4513 42.694 39.2918C42.6871 39.2918 42.8535 39.2676 42.8535 39.2676C42.9886 39.2537 43.0684 39.1393 43.0614 38.9868L43.0718 38.5709C43.3803 37.3197 44.6281 35.8223 46.1012 35.597C46.9365 35.4653 47.595 35.6802 48.1149 36.2452C48.1843 36.3457 48.3368 37.2503 47.7891 38.2832C47.3801 39.0492 46.5622 39.6974 45.4842 40.0994C44.4652 40.4876 43.3422 40.6436 41.9592 40.5951C41.9003 40.557 40.6629 39.7182 40.6629 39.7182C39.5642 38.9452 38.1986 37.9851 36.9612 37.5172C36.7428 37.434 36.3546 37.1082 36.1189 36.9176L35.9907 36.8136C35.2767 36.2417 33.918 35.3371 32.8296 34.6092C32.8296 34.6092 32.3374 34.2799 32.2439 34.2141C32.2439 34.1725 32.2439 34.0893 32.2439 34.0893C32.2751 34.0546 32.9613 33.6456 32.9613 33.6456C33.9214 33.0841 34.3651 32.8103 34.4587 32.6682C34.4379 32.6925 34.5869 32.592 34.5869 32.592C34.5973 32.5885 36.9646 31.2471 36.9646 31.2471C39.2488 29.9924 41.8344 28.5679 43.1931 27.1641L43.259 26.9492L43.2902 26.7586C43.3803 26.457 43.3838 26.2283 43.311 25.9614C43.2902 25.8851 43.2209 25.795 43.1273 25.7812C42.0667 25.6737 40.6976 26.3115 39.4533 27.4795C39.1725 27.7429 38.9368 27.8712 38.6873 28.0064L38.4966 28.1138C37.1241 28.8937 34.0324 30.8139 32.4102 31.8502C32.5177 30.1103 32.84 27.632 33.2352 25.5697L33.1901 25.3236L33.0237 25.0117L32.899 24.7899L32.8643 24.7795C32.5419 24.6166 32.2785 24.6824 32.0844 24.7309L31.7621 24.8488L31.3288 25.0048C31.2422 25.0221 31.1833 25.0741 31.1521 25.1573C30.3791 27.0255 29.7344 30.0999 29.5819 32.5573C28.0361 31.5764 26.6081 30.8693 25.9079 30.5262L25.8871 30.5158L25.8039 30.4985C25.5509 30.4673 25.2459 30.2801 24.9513 30.0999C24.9201 30.0825 24.362 29.7186 24.362 29.7186L23.4643 29.1432L23.2286 29.0878C22.8439 29.1536 22.1022 29.6527 21.8838 29.9924C21.8561 30.0375 21.8422 30.086 21.8422 30.1345C21.8422 30.2073 21.863 30.2766 21.8838 30.3494L21.9219 30.5331L21.9635 30.644C22.3933 31.0842 23.4817 31.819 24.5458 32.3909L25.7797 33.046L27.6687 34.0789L27.991 34.3354L28.2128 34.4636C28.2128 34.4636 28.2371 34.4775 28.2544 34.4879C27.7519 34.8241 24.8161 36.7824 24.8161 36.7824L23.0103 37.9817C22.8405 38.0995 22.1264 38.4184 21.967 38.4808C21.5753 38.6402 21.2773 38.8863 21.1559 39.1497L21.1074 39.2537L21.1559 39.323L21.2946 39.427L21.4783 39.5483L21.6793 39.6835L21.8665 39.7147C22.1854 39.7251 22.6533 39.5449 23.5337 39.1601C24.3413 38.8031 26.5353 37.4791 27.4746 36.9141L27.8732 36.675C28.0395 36.6888 28.2198 36.5502 28.3827 36.4254C28.5698 36.2764 28.9788 36.0234 29.2284 35.9124C29.2353 35.9124 29.3774 35.8293 29.5126 35.7565C29.5126 35.7981 29.5126 35.8639 29.5126 35.8639C29.5542 38.7338 29.7171 40.8204 30.0325 42.4286V42.4564L30.0672 42.5222C30.2197 42.7475 30.3965 43.4303 30.5524 44.0299L30.9094 45.2292L31.0099 45.3401C31.2144 45.4788 31.8349 45.7179 32.2508 45.6694L32.3548 45.6555L32.4206 45.5099C32.4553 45.3297 32.4692 45.1529 32.4692 44.9588C32.4692 44.7405 32.4518 44.4979 32.4345 44.2032L32.4068 43.77C32.2751 41.7666 32.1433 38.8724 32.1433 36.9488V36.7963C32.4865 37.0077 33.9734 37.947 33.9734 37.947C36.5071 39.5899 40.3371 42.0751 42.649 42.7302C42.7703 42.7648 42.8951 42.7371 42.9852 42.6539C42.9852 42.6505 43.3422 42.4252 43.3422 42.4252L43.408 42.3974C43.5397 42.335 43.6299 42.1097 43.6437 41.8671C45.5951 41.7701 48.3125 41.0179 49.7683 39.1879C50.3298 38.4773 50.5862 37.6108 50.5862 36.8691C50.5862 36.259 50.4164 35.7322 50.1114 35.4445" fill="#F8B500"/>
</svg>
