<svg width="68" height="67" viewBox="0 0 68 67" fill="none" xmlns="http://www.w3.org/2000/svg">
<circle cx="34" cy="33.5" r="33.5" fill="white"/>
<circle cx="34" cy="33.5" r="33" stroke="black" stroke-opacity="0.05"/>
<path d="M38.7304 21.5L33.998 23.8761L29.2656 21.5L33.998 30.4975L38.7304 21.5Z" fill="#FABE00"/>
<path d="M40.3879 28.453L40.3183 28.39L43.692 26.9716V22.2227L37.8262 24.7247C37.8262 24.7247 34.6514 30.743 34.5751 30.8821C37.0639 31.1804 38.933 33.2682 38.933 35.7802C38.933 38.5043 36.7193 40.7214 33.9985 40.7214C31.2777 40.7214 29.0606 38.5043 29.0606 35.7802C29.0606 33.2682 30.9297 31.1804 33.4185 30.8821C33.3456 30.7463 30.1741 24.7247 30.1741 24.7247L24.3117 22.2227V26.9716L27.6886 28.39L27.6157 28.453C25.4981 30.3055 24.2852 32.9733 24.2852 35.7802C24.2852 41.139 28.6398 45.5002 33.9985 45.5002C39.3572 45.5002 43.7152 41.139 43.7152 35.7802C43.7152 32.9766 42.5022 30.3055 40.3879 28.453Z" fill="#FABE00"/>
</svg>
