<svg width="68" height="67" viewBox="0 0 68 67" fill="none" xmlns="http://www.w3.org/2000/svg">
<circle cx="34" cy="33.5" r="33.5" fill="white"/>
<circle cx="34" cy="33.5" r="33" stroke="black" stroke-opacity="0.05"/>
<path d="M34 21.5C27.375 21.5 22 26.875 22 33.5C22 40.125 27.375 45.5 34 45.5C40.625 45.5 46 40.125 46 33.5C46 26.875 40.629 21.5 34 21.5ZM34.25 43.3024C32.8145 43.504 30.4758 43.1411 28.8952 42.1371C27.5081 41.2621 26.6815 40.1653 26.1452 39.0524C25.5968 37.9153 25.3387 36.5363 25.9234 36.6048C26.1976 36.6371 26.4315 37.1532 26.9597 37.8266C27.3185 38.2863 27.6532 38.6734 27.9032 38.7298C28.0161 38.754 28.1089 38.7016 28.1855 38.5524C28.3347 38.2661 28.5363 37.7258 28.8952 37.2863C29.1855 36.9516 29.5363 36.7944 29.7419 37.6129C29.8387 38.0202 29.9194 38.4435 29.9637 38.8105C30.0282 39.3306 30.0605 39.6411 30.2419 39.7258C30.4153 39.8105 30.7056 39.7016 31.1815 39.5242C31.5202 39.3992 31.9556 39.2379 32.5081 39.0806C33.0161 38.9355 33.3387 39.0121 33.0121 39.7984C32.8589 40.1694 32.7016 40.4839 32.1532 41.2742C32.0565 41.4113 32.0766 41.5524 32.1935 41.6694C32.379 41.8508 32.7944 42.0726 33.254 42.2742C33.621 42.4315 34.0565 42.5726 34.3468 42.6532C34.7984 42.7823 34.7097 43.2379 34.254 43.3024H34.25ZM40.4073 40.7218C39.9597 41.4476 39.0242 42.2339 37.8871 42.7581C37.7137 42.8347 37.5323 42.8105 37.4839 42.6694C37.4436 42.5484 37.5403 42.4073 37.6532 42.2742C39.1331 40.3548 38.0323 38.5927 35.6452 37.2298C33.879 36.2218 32.7581 35.6411 31.4556 34.875C27.6411 32.629 26.9032 30.6694 26.754 29.5121C26.379 26.5887 28.7984 24.3952 31.2823 23.8669C31.3589 23.8508 31.5565 23.8185 31.621 23.9839C31.6855 24.1492 31.5363 24.2702 31.4516 24.3226C30.3387 24.9355 29.246 26.2339 29.3669 27.6774C29.4355 28.4839 29.7782 29.6452 31.9637 31.2016C33.2823 32.1411 34.8952 32.9113 38.1492 34.8629C41.5887 36.9234 41.1976 39.4395 40.4073 40.7177V40.7218ZM40.9436 29.746C40.1573 30.7056 39.375 30.3508 38.7702 28.996C38.3952 28.1532 37.8992 27.9476 37.5484 28.1694C37.1653 28.4113 37.3185 28.9879 37.746 29.6532C38.0242 30.0887 37.8992 30.6008 37.6089 30.9032C37.3024 31.2218 36.8065 31.3468 36.2621 31.2298C35.2944 31.0161 34.3427 29.7218 35.0363 26.8911C35.3186 25.75 34.7702 25.2621 34.4194 24.8226C34.246 24.6048 34.2258 24.4718 34.2863 24.3831C34.3548 24.2863 34.5161 24.2782 34.7984 24.3387C35.1694 24.4153 35.7218 24.6089 36.1734 24.6774C36.4718 24.7258 36.8105 24.7379 37.1653 24.7218C38.129 24.6855 38.8427 24.8347 39.5686 25.1935C40.8024 25.8065 40.9315 26.8589 40.2419 26.7742C40.004 26.746 39.6976 26.5645 39.4435 26.4435C39.2742 26.3629 39.129 26.3347 39.0202 26.4113C38.9194 26.4839 38.875 26.6371 38.9476 26.7903C39.1008 27.1129 39.621 27.2782 40.3226 27.4758C41.5524 27.8145 41.5766 28.9556 40.9355 29.746H40.9436Z" fill="#0046FF"/>
<path d="M34.2528 43.3027C32.8173 43.5043 30.4786 43.1414 28.898 42.1374C27.5109 41.2624 26.6843 40.1656 26.148 39.0527C25.5996 37.9156 25.3415 36.5366 25.9262 36.6051C26.2004 36.6374 26.4343 37.1535 26.9625 37.8269C27.3214 38.2866 27.656 38.6737 27.906 38.7301C28.0189 38.7543 28.1117 38.7019 28.1923 38.5527C28.3415 38.2664 28.5431 37.7261 28.902 37.2866C29.1923 36.9519 29.5431 36.7947 29.7488 37.6132C29.8456 38.0205 29.9262 38.4438 29.9706 38.8108C30.0351 39.3309 30.0673 39.6414 30.2488 39.7261C30.4222 39.8108 30.7125 39.7019 31.1883 39.5245C31.527 39.3995 31.9625 39.2382 32.5149 39.0809C33.023 38.9358 33.3456 39.0124 33.0189 39.7987C32.8657 40.1697 32.7085 40.4842 32.1601 41.2745C32.0633 41.4116 32.0835 41.5527 32.2004 41.6697C32.3859 41.8511 32.8012 42.0729 33.2609 42.2745C33.6278 42.4318 34.0633 42.5729 34.3536 42.6535C34.8052 42.7826 34.7165 43.2382 34.2609 43.3027H34.2528ZM40.4101 40.7221C39.9625 41.4479 39.027 42.2342 37.8899 42.7584C37.7165 42.835 37.5351 42.8108 37.4867 42.6697C37.4464 42.5487 37.5431 42.4076 37.656 42.2745C39.1359 40.3551 38.0351 38.593 35.648 37.2301C33.8818 36.2221 32.7609 35.6414 31.4585 34.8753C27.6439 32.6293 26.906 30.6697 26.7568 29.5124C26.3818 26.589 28.8012 24.3955 31.2851 23.8672C31.3617 23.8511 31.5593 23.8188 31.6238 23.9842C31.6883 24.1495 31.5391 24.2705 31.4544 24.3229C30.3415 24.9358 29.2488 26.2342 29.3698 27.6777C29.4383 28.4842 29.781 29.6455 31.9665 31.2019C33.2851 32.1414 34.898 32.9116 38.152 34.8632C41.5915 36.9237 41.2004 39.4398 40.4101 40.718V40.7221ZM40.9464 29.7463C40.1601 30.7059 39.3778 30.3511 38.773 28.9963C38.398 28.1535 37.902 27.9479 37.5512 28.1697C37.1681 28.4116 37.3214 28.9882 37.7488 29.6535C38.027 30.089 37.902 30.6011 37.6117 30.9035C37.3052 31.2221 36.8093 31.3471 36.2649 31.2301C35.2972 31.0164 34.3456 29.7221 35.0391 26.8914C35.3214 25.7503 34.773 25.2624 34.4222 24.8229C34.2488 24.6051 34.2286 24.4721 34.2891 24.3834C34.3577 24.2866 34.5189 24.2785 34.8012 24.339C35.1722 24.4156 35.7246 24.6092 36.1762 24.6777C36.4746 24.7261 36.8133 24.7382 37.1681 24.7221C38.1318 24.6858 38.8456 24.835 39.5714 25.1938C40.8052 25.8068 40.9343 26.8592 40.2448 26.7745C40.0068 26.7463 39.7004 26.5648 39.4464 26.4438C39.277 26.3632 39.1318 26.335 39.023 26.4116C38.9222 26.4842 38.8778 26.6374 38.9504 26.7906C39.1036 27.1132 39.6238 27.2785 40.3254 27.4761C41.5552 27.8148 41.5794 28.9559 40.9383 29.7463H40.9464Z" fill="white"/>
</svg>
