<svg width="68" height="67" viewBox="0 0 68 67" fill="none" xmlns="http://www.w3.org/2000/svg">
<circle cx="34" cy="33.5" r="33.5" fill="white"/>
<circle cx="34" cy="33.5" r="33" stroke="black" stroke-opacity="0.05"/>
<path d="M46 33.4977C46 40.1299 40.6208 45.5 34.0069 45.5C27.393 45.5 22 40.1299 22 33.4977C22 26.8655 27.3701 21.5 34.0023 21.5C40.6345 21.5 45.9954 26.8701 45.9954 33.4977H46Z" fill="white"/>
<path d="M33.9911 44.9242C40.2974 44.9242 45.4151 39.8112 45.4151 33.4957C45.4151 27.1801 40.2974 22.0625 33.9865 22.0625C27.6755 22.0625 22.5625 27.1847 22.5625 33.4957C22.5625 39.8066 27.6755 44.9242 33.9957 44.9242H33.9911Z" fill="#007BC7"/>
<mask id="mask0_868_2764" style="mask-type:luminance" maskUnits="userSpaceOnUse" x="22" y="22" width="24" height="23">
<path d="M34.0379 44.9242C40.3443 44.9242 45.4619 39.8112 45.4619 33.4957C45.4619 27.1801 40.3443 22.0625 34.0334 22.0625C27.7224 22.0625 22.6094 27.1847 22.6094 33.4957C22.6094 39.8066 27.7224 44.9242 34.0425 44.9242H34.0379Z" fill="white"/>
</mask>
<g mask="url(#mask0_868_2764)">
<path d="M34.0793 39.0193C39.1006 39.0193 43.4058 40.4192 45.2509 42.4019C45.8705 40.9791 46.2102 39.414 46.2102 37.7754C46.2102 31.2166 40.7713 25.9062 34.0793 25.9062C27.3874 25.9062 21.9531 31.2212 21.9531 37.7754C21.9531 39.4232 22.2928 40.9791 22.9124 42.4019C24.7529 40.4192 29.0581 39.0193 34.0793 39.0193Z" fill="#007BC7"/>
<path d="M34.0987 39.0258C39.1061 39.0258 43.4022 40.4165 45.2427 42.381C45.8623 40.9673 46.202 39.4159 46.202 37.7912C46.202 31.2874 40.7814 26 34.1033 26C27.4251 26 22 31.292 22 37.7958C22 39.4297 22.3396 40.9765 22.9547 42.3855C24.7906 40.4165 29.0866 39.0304 34.0941 39.0304L34.0987 39.0258Z" fill="#007DC8"/>
<path d="M34.062 39.0512C39.0557 39.0512 43.3425 40.4281 45.1738 42.3788C45.7935 40.9789 46.1285 39.4413 46.1285 37.8257C46.1285 31.3725 40.7217 26.1172 34.0574 26.1172C27.393 26.1172 22 31.3817 22 37.8303C22 39.4505 22.3396 40.9835 22.9547 42.3834C24.786 40.4327 29.0683 39.0558 34.062 39.0558V39.0512Z" fill="#007EC9"/>
<path d="M34.0813 39.0578C39.0612 39.0578 43.3343 40.4209 45.1656 42.3578C45.7807 40.9717 46.1203 39.4433 46.1203 37.8415C46.1203 31.4433 40.7273 26.2109 34.0813 26.2109C27.4353 26.2109 22.0469 31.4479 22.0469 37.846C22.0469 39.4525 22.3865 40.9763 22.997 42.3624C24.8237 40.4255 29.0968 39.0623 34.0767 39.0623L34.0813 39.0578Z" fill="#0080CA"/>
<path d="M34.0492 39.0643C39.0199 39.0643 43.2792 40.4183 45.106 42.3368C45.721 40.9599 46.0561 39.4452 46.0561 37.8572C46.0561 31.5095 40.6768 26.3047 34.0492 26.3047C27.4215 26.3047 22.0469 31.5141 22.0469 37.8618C22.0469 39.4544 22.3865 40.9645 22.997 42.3414C24.8191 40.4229 29.0784 39.0689 34.0492 39.0689V39.0643Z" fill="#0082CB"/>
<path d="M34.0639 39.0897C39.0209 39.0897 43.271 40.4345 45.0932 42.3393C45.7036 40.9761 46.0433 39.4752 46.0433 37.8963C46.0433 31.6037 40.6778 26.4219 34.0685 26.4219C27.4592 26.4219 22.0938 31.6083 22.0938 37.8963C22.0938 39.4798 22.4288 40.9715 23.0392 42.3393C24.8568 40.4345 29.1069 39.0897 34.0639 39.0897Z" fill="#0083CC"/>
<path d="M34.0787 39.0962C39.0219 39.0962 43.2628 40.4273 45.0758 42.3183C45.6862 40.9643 46.0213 39.4772 46.0213 37.9121C46.0213 31.67 40.6696 26.5156 34.0787 26.5156C27.4877 26.5156 22.1406 31.6745 22.1406 37.9121C22.1406 39.4818 22.4757 40.9643 23.0861 42.3183C24.8991 40.4273 29.1355 39.0962 34.0833 39.0962H34.0787Z" fill="#0085CE"/>
<path d="M34.0511 39.0982C38.9806 39.0982 43.2123 40.42 45.0207 42.2927C45.6312 40.9525 45.9662 39.4746 45.9662 37.9278C45.9662 31.7408 40.6283 26.6094 34.0511 26.6094C27.474 26.6094 22.1406 31.7362 22.1406 37.9232C22.1406 39.4791 22.4757 40.9479 23.0815 42.2881C24.8899 40.4155 29.1171 39.0936 34.0465 39.0936L34.0511 39.0982Z" fill="#0087CF"/>
<path d="M34.0659 39.1282C38.9815 39.1282 43.2041 40.4363 45.0079 42.2951C45.6138 40.9641 45.9488 39.4999 45.9488 37.967C45.9488 31.8304 40.6247 26.7266 34.0659 26.7266C27.5071 26.7266 22.1875 31.8304 22.1875 37.9624C22.1875 39.5045 22.5226 40.9641 23.1284 42.2905C24.9322 40.4363 29.1502 39.1236 34.0659 39.1236V39.1282Z" fill="#0089D0"/>
<path d="M34.0806 39.1301C38.9825 39.1301 43.1913 40.429 44.9951 42.2695C45.601 40.9523 45.936 39.5019 45.936 37.9781C45.936 31.8966 40.6257 26.8203 34.0852 26.8203C27.5448 26.8203 22.2344 31.892 22.2344 37.9735C22.2344 39.5019 22.5694 40.9477 23.1707 42.2649C24.9653 40.4244 29.1741 39.1255 34.0806 39.1255V39.1301Z" fill="#008BD1"/>
<path d="M34.0531 39.1367C38.9412 39.1367 43.1409 40.4218 44.9355 42.2485C45.5413 40.9405 45.8718 39.5038 45.8718 37.9938C45.8718 31.9628 40.5752 26.9141 34.0531 26.9141C27.531 26.9141 22.2344 31.9674 22.2344 37.9938C22.2344 39.5084 22.5648 40.9405 23.1707 42.2485C24.9607 40.4218 29.1604 39.1367 34.0531 39.1367Z" fill="#008CD2"/>
<path d="M34.0632 39.1666C38.9376 39.1666 43.1281 40.4426 44.9181 42.251C45.5194 40.9567 45.8544 39.5292 45.8544 38.033C45.8544 32.0525 40.5716 27.0312 34.0632 27.0312C27.5549 27.0312 22.2812 32.0571 22.2812 38.033C22.2812 39.5338 22.6117 40.9567 23.213 42.251C24.9984 40.4426 29.1843 39.1666 34.0632 39.1666Z" fill="#008ED3"/>
<path d="M34.0826 39.1732C38.9477 39.1732 43.1245 40.4354 44.9099 42.23C45.5111 40.9449 45.8416 39.5312 45.8416 38.0487C45.8416 32.1233 40.5725 27.125 34.0826 27.125C27.5926 27.125 22.3281 32.1233 22.3281 38.0487C22.3281 39.5358 22.6586 40.9449 23.2599 42.23C25.0407 40.4354 29.2174 39.1732 34.0826 39.1732Z" fill="#0090D4"/>
<path d="M34.0504 39.1797C38.9018 39.1797 43.0694 40.4327 44.8502 42.209C45.4469 40.9376 45.7819 39.5377 45.7819 38.0644C45.7819 32.1895 40.5266 27.2188 34.055 27.2188C27.5834 27.2188 22.3281 32.1941 22.3281 38.0644C22.3281 39.5377 22.6586 40.9376 23.2553 42.209C25.0315 40.4327 29.199 39.1797 34.0504 39.1797Z" fill="#0092D5"/>
<path d="M34.0652 39.2005C38.9028 39.2005 43.0612 40.4398 44.8328 42.2023C45.4295 40.9401 45.76 39.554 45.76 38.099C45.76 32.2791 40.5184 27.3359 34.0652 27.3359C27.6119 27.3359 22.375 32.2791 22.375 38.099C22.375 39.5585 22.7055 40.9447 23.3021 42.2023C25.0738 40.4398 29.2276 39.2005 34.0698 39.2005H34.0652Z" fill="#0094D6"/>
<path d="M34.0377 39.2071C38.8615 39.2071 43.0061 40.4371 44.7778 42.1813C45.3744 40.9328 45.7049 39.5559 45.7049 38.1147C45.7049 32.3454 40.4771 27.4297 34.0377 27.4297C27.5982 27.4297 22.375 32.3454 22.375 38.1147C22.375 39.5605 22.7055 40.9374 23.2975 42.1813C25.0646 40.4371 29.2092 39.2071 34.0377 39.2071Z" fill="#0096D7"/>
<path d="M34.0524 39.2136C38.8625 39.2136 42.9979 40.4299 44.765 42.1603C45.357 40.921 45.6875 39.5625 45.6875 38.1304C45.6875 32.4162 40.4735 27.5234 34.0524 27.5234C27.6313 27.5234 22.4219 32.4162 22.4219 38.1304C22.4219 39.5625 22.7477 40.9256 23.3398 42.1603C25.1023 40.4299 29.2331 39.2136 34.0478 39.2136H34.0524Z" fill="#0098D8"/>
<path d="M34.0671 39.2436C38.8635 39.2436 42.9897 40.4507 44.7522 42.1627C45.3443 40.9372 45.6701 39.5878 45.6701 38.1696C45.6701 32.5058 40.4699 27.6406 34.0671 27.6406C27.6644 27.6406 22.4688 32.5058 22.4688 38.1696C22.4688 39.5878 22.7946 40.9372 23.3867 42.1627C25.1446 40.4507 29.2662 39.2436 34.0671 39.2436Z" fill="#009AD9"/>
<path d="M34.035 39.2502C38.8176 39.2502 42.9346 40.4435 44.6879 42.1417C45.28 40.9254 45.6059 39.5898 45.6059 38.1853C45.6059 32.572 40.424 27.7344 34.035 27.7344C27.646 27.7344 22.4688 32.5766 22.4688 38.1899C22.4688 39.599 22.7946 40.9346 23.3821 42.1463C25.1354 40.4481 29.2433 39.2547 34.035 39.2547V39.2502Z" fill="#009CDA"/>
<path d="M34.0544 39.2567C38.8277 39.2567 42.931 40.4409 44.6797 42.1207C45.2672 40.9136 45.5931 39.5917 45.5931 38.201C45.5931 32.6428 40.425 27.8281 34.0498 27.8281C27.6745 27.8281 22.5156 32.6474 22.5156 38.2056C22.5156 39.6009 22.8415 40.9228 23.429 42.1253C25.1777 40.4454 29.2764 39.2613 34.0544 39.2613V39.2567Z" fill="#009EDB"/>
<path d="M34.0645 39.2821C38.8241 39.2821 42.9136 40.4525 44.6623 42.1186C45.2498 40.9252 45.5757 39.6126 45.5757 38.2356C45.5757 32.7279 40.4214 27.9453 34.0645 27.9453C27.7077 27.9453 22.5625 32.7325 22.5625 38.2402C22.5625 39.6217 22.8884 40.9344 23.4713 42.1232C25.2154 40.4571 29.3049 39.2867 34.0645 39.2867V39.2821Z" fill="#00A0DC"/>
<path d="M34.037 39.2886C38.7828 39.2886 42.8631 40.4498 44.6073 42.0976C45.1947 40.9134 45.516 39.6191 45.516 38.2513C45.516 32.7987 40.3755 28.0391 34.037 28.0391C27.6985 28.0391 22.5625 32.8033 22.5625 38.2559C22.5625 39.6237 22.8838 40.9226 23.4713 42.1022C25.2108 40.4544 29.2865 39.2932 34.037 39.2932V39.2886Z" fill="#00A2DD"/>
<path d="M34.0563 39.286C38.7884 39.286 42.8595 40.438 44.5945 42.072C45.1774 40.9016 45.5032 39.6165 45.5032 38.2671C45.5032 32.8649 40.3764 28.1328 34.0563 28.1328C27.7362 28.1328 22.6094 32.8649 22.6094 38.2625C22.6094 39.6165 22.9307 40.9016 23.5136 42.0674C25.2485 40.4334 29.3151 39.2814 34.0517 39.2814L34.0563 39.286Z" fill="#00A4DE"/>
<path d="M34.0196 39.316C38.7379 39.316 42.7999 40.4542 44.5302 42.0744C45.1131 40.9132 45.4344 39.6419 45.4344 38.3062C45.4344 32.9591 40.3214 28.25 34.0196 28.25C27.7178 28.25 22.6094 32.9545 22.6094 38.3016C22.6094 39.6419 22.9307 40.9178 23.5136 42.0699C25.2439 40.4542 29.2967 39.3114 34.0242 39.3114L34.0196 39.316Z" fill="#00A6DF"/>
<path d="M34.0389 39.3225C38.7435 39.3225 42.7962 40.4516 44.522 42.0534C45.1049 40.906 45.4262 39.6484 45.4262 38.3219C45.4262 33.0253 40.3269 28.3438 34.0389 28.3438C27.7509 28.3438 22.6562 33.0253 22.6562 38.3174C22.6562 39.6438 22.9775 40.906 23.5558 42.0489C25.2816 40.447 29.3252 39.3179 34.0343 39.3179L34.0389 39.3225Z" fill="#00A9E0"/>
<path d="M34.0537 39.3291C38.7444 39.3291 42.7834 40.4444 44.5092 42.0324C45.0875 40.8942 45.4088 39.6504 45.4088 38.3377C45.4088 33.0961 40.3233 28.4375 34.0537 28.4375C27.784 28.4375 22.7031 33.0915 22.7031 38.3331C22.7031 39.6458 23.0244 40.8988 23.6027 42.0279C25.3239 40.4398 29.3583 39.3245 34.0537 39.3245V39.3291Z" fill="#00ABE1"/>
<path d="M34.0215 39.3545C38.6985 39.3545 42.7284 40.4606 44.445 42.0303C45.0233 40.9058 45.3446 39.6712 45.3446 38.3722C45.3446 33.1812 40.2728 28.5547 34.0215 28.5547C27.7703 28.5547 22.7031 33.1812 22.7031 38.3722C22.7031 39.6712 23.0244 40.9104 23.5981 42.0303C25.3147 40.4606 29.3354 39.3545 34.0215 39.3545Z" fill="#00ADE2"/>
<path d="M34.0363 39.361C38.7041 39.361 42.7202 40.4534 44.4322 42.0093C45.0059 40.8986 45.3272 39.6731 45.3272 38.388C45.3272 33.2474 40.2692 28.6484 34.0317 28.6484C27.7942 28.6484 22.75 33.252 22.75 38.388C22.75 39.6731 23.0667 40.8986 23.645 42.0093C25.357 40.4534 29.3685 39.361 34.0409 39.361H34.0363Z" fill="#01AFE3"/>
<path d="M34.0556 39.3675C38.7097 39.3675 42.7166 40.4507 44.424 41.9883C44.9977 40.8868 45.319 39.6797 45.319 38.4037C45.319 33.3182 40.2748 28.7422 34.0556 28.7422C27.8365 28.7422 22.7969 33.3182 22.7969 38.4037C22.7969 39.6751 23.1136 40.8914 23.6873 41.9883C25.3947 40.4507 29.3924 39.3675 34.0556 39.3675Z" fill="#14B1E4"/>
<path d="M34.0235 39.3975C38.6638 39.3975 42.6615 40.4669 44.3643 41.9908C44.938 40.903 45.2547 39.705 45.2547 38.4429C45.2547 33.4079 40.2243 28.8594 34.0235 28.8594C27.8227 28.8594 22.7969 33.4079 22.7969 38.4429C22.7969 39.705 23.1136 40.903 23.6873 41.9908C25.3901 40.4669 29.3786 39.3975 34.0235 39.3975Z" fill="#20B4E5"/>
<path d="M34.0382 39.3995C38.6648 39.3995 42.6533 40.4597 44.3515 41.9652C44.9206 40.8866 45.2419 39.7024 45.2419 38.4586C45.2419 33.4787 40.2253 28.9531 34.0428 28.9531C27.8604 28.9531 22.8438 33.4741 22.8438 38.454C22.8438 39.7024 23.1604 40.8912 23.7296 41.9606C25.4278 40.4551 29.4071 39.3949 34.0382 39.3949V39.3995Z" fill="#28B6E6"/>
<path d="M34.0107 39.406C38.6234 39.406 42.5982 40.4525 44.2918 41.9442C44.861 40.8748 45.1777 39.7044 45.1777 38.4743C45.1777 33.5449 40.1748 29.0469 34.0107 29.0469C27.8466 29.0469 22.8438 33.5449 22.8438 38.4743C22.8438 39.709 23.1604 40.8839 23.725 41.9442C25.4186 40.4525 29.3842 39.406 34.0061 39.406H34.0107Z" fill="#30B8E7"/>
<path d="M34.0392 39.4355C38.6474 39.4355 42.6175 40.4774 44.3066 41.9553C44.8757 40.8951 45.1924 39.7339 45.1924 38.5084C45.1924 33.6111 40.1987 29.1406 34.0392 29.1406C27.8797 29.1406 22.8906 33.6111 22.8906 38.5084C22.8906 39.7339 23.2073 40.9043 23.7719 41.9553C25.4609 40.4728 29.4219 39.4355 34.0392 39.4355Z" fill="#3FBAE8"/>
<path d="M34.0255 39.4604C38.629 39.4604 42.59 40.4931 44.279 41.9664C44.8482 40.9154 45.1649 39.7588 45.1649 38.5425C45.1649 33.6773 40.1758 29.2344 34.0255 29.2344C27.8751 29.2344 22.8906 33.6773 22.8906 38.5379C22.8906 39.7542 23.2027 40.9154 23.7719 41.9619C25.4609 40.4885 29.4173 39.4558 34.0255 39.4558V39.4604Z" fill="#4CBDE9"/>
<path d="M34.0117 39.4991C38.6061 39.4991 42.567 40.5272 44.2515 41.9868C44.816 40.9403 45.1327 39.7928 45.1327 38.5811C45.1327 33.7481 40.1528 29.3281 34.0117 29.3281C27.8705 29.3281 22.8906 33.7527 22.8906 38.5857C22.8906 39.7974 23.2027 40.9495 23.7719 41.9913C25.4563 40.5318 29.4081 39.5037 34.0117 39.5037V39.4991Z" fill="#56BFEA"/>
<path d="M34.0402 39.524C38.63 39.524 42.5818 40.5429 44.2662 41.9979C44.8308 40.9606 45.1475 39.8177 45.1475 38.6152C45.1475 33.8143 40.1722 29.4219 34.0402 29.4219C27.9082 29.4219 22.9375 33.8143 22.9375 38.6152C22.9375 39.8177 23.2496 40.9606 23.8141 41.9979C25.4986 40.5475 29.4458 39.524 34.0402 39.524Z" fill="#60C1EA"/>
<path d="M34.0264 39.5581C38.6116 39.5581 42.5543 40.5724 44.2387 42.0136C44.8033 40.9809 45.1199 39.8472 45.1199 38.6539C45.1199 33.8851 40.1538 29.5156 34.0264 29.5156C27.8991 29.5156 22.9375 33.8897 22.9375 38.6539C22.9375 39.8472 23.2496 40.9855 23.8141 42.0136C25.494 40.5724 29.4366 39.5581 34.0264 39.5581Z" fill="#69C4EB"/>
<path d="M34.0127 39.5876C38.5887 39.5876 42.5313 40.5927 44.2112 42.0247C44.7757 41.0012 45.0924 39.8767 45.0924 38.688C45.0924 33.9513 40.1308 29.6094 34.0172 29.6094C27.9037 29.6094 22.9375 33.9559 22.9375 38.6926C22.9375 39.8767 23.2496 41.0058 23.8141 42.0293C25.494 40.5973 29.4275 39.5922 34.0127 39.5922V39.5876Z" fill="#71C6EC"/>
<path d="M34.0412 39.6125C38.6126 39.6125 42.5461 40.6131 44.2259 42.0359C44.7905 41.017 45.1026 39.9016 45.1026 38.7221C45.1026 34.0175 40.1456 29.7031 34.0412 29.7031C27.9368 29.7031 22.9844 34.0221 22.9844 38.7266C22.9844 39.9062 23.2965 41.0261 23.8564 42.0405C25.5317 40.6176 29.4652 39.6171 34.0412 39.6171V39.6125Z" fill="#79C9ED"/>
<path d="M34.0274 39.6466C38.5942 39.6466 42.5231 40.638 44.1984 42.0516C44.7583 41.0419 45.075 39.9311 45.075 38.7607C45.075 34.0883 40.1272 29.7969 34.0274 29.7969C27.9276 29.7969 22.9844 34.0929 22.9844 38.7607C22.9844 39.9311 23.2965 41.0419 23.8564 42.0516C25.5317 40.638 29.456 39.6466 34.0274 39.6466Z" fill="#81CBEE"/>
<path d="M34.0136 39.6715C38.5713 39.6715 42.4956 40.6583 44.1708 42.0627C44.7308 41.0576 45.0475 39.956 45.0475 38.7948C45.0475 34.1545 40.1043 29.8906 34.0182 29.8906C27.9322 29.8906 22.9844 34.1545 22.9844 38.7948C22.9844 39.956 23.2919 41.0622 23.8564 42.0627C25.5271 40.6583 29.4514 39.6715 34.0136 39.6715Z" fill="#88CEEF"/>
<path d="M34.0422 39.7055C38.5952 39.7055 42.5149 40.6832 44.1856 42.0785C44.7455 41.0825 45.0576 39.9855 45.0576 38.8335C45.0576 34.2253 40.1236 29.9844 34.0422 29.9844C27.9607 29.9844 23.0312 34.2253 23.0312 38.8335C23.0312 39.9855 23.3388 41.0825 23.8987 42.0785C25.5694 40.6832 29.4845 39.7055 34.0422 39.7055Z" fill="#8FD0F0"/>
<path d="M34.0284 39.735C38.5769 39.735 42.4874 40.7081 44.158 42.0896C44.718 41.0982 45.0301 40.015 45.0301 38.8676C45.0301 34.2916 40.1007 30.0781 34.0284 30.0781C27.9561 30.0781 23.0312 34.2961 23.0312 38.8676C23.0312 40.015 23.3388 41.1028 23.8987 42.0896C25.5648 40.7081 29.4799 39.735 34.0284 39.735Z" fill="#96D3F1"/>
<path d="M34.0146 39.7599C38.5585 39.7599 42.4644 40.7238 44.1305 42.1007C44.6905 41.1185 45.0026 40.0399 45.0026 38.9017C45.0026 34.3578 40.0823 30.1719 34.0192 30.1719C27.9561 30.1719 23.0312 34.3578 23.0312 38.9017C23.0312 40.0399 23.3388 41.1185 23.8987 42.1007C25.5648 40.7284 29.4707 39.7599 34.0146 39.7599Z" fill="#9CD5F1"/>
<path d="M34.0477 39.794C38.5824 39.794 42.4838 40.7533 44.1453 42.1165C44.7006 41.1388 45.0173 40.0694 45.0173 38.9403C45.0173 34.4286 40.1017 30.2656 34.0477 30.2656C27.9938 30.2656 23.0781 34.4286 23.0781 38.9403C23.0781 40.0694 23.3856 41.1434 23.941 42.1165C25.6025 40.7533 29.5038 39.794 34.0431 39.794H34.0477Z" fill="#A3D7F2"/>
<path d="M34.0294 39.8189C38.5595 39.8189 42.4562 40.769 44.1131 42.1276C44.6685 41.1591 44.9806 40.0943 44.9806 38.9744C44.9806 34.4948 40.0741 30.3594 34.0248 30.3594C27.9754 30.3594 23.0781 34.4948 23.0781 38.9698C23.0781 40.0897 23.3856 41.1546 23.941 42.123C25.6025 40.769 29.4992 39.8143 34.0294 39.8143V39.8189Z" fill="#A9DAF3"/>
<path d="M34.0156 39.853C38.5411 39.853 42.4287 40.7985 44.0856 42.1433C44.6409 41.1795 44.9531 40.1238 44.9531 39.0131C44.9531 34.5656 40.0512 30.4531 34.0156 30.4531C27.98 30.4531 23.0781 34.5656 23.0781 39.0131C23.0781 40.1284 23.3856 41.184 23.941 42.1433C25.5979 40.7985 29.4901 39.853 34.0156 39.853Z" fill="#AFDCF4"/>
<path d="M34.0487 39.8825C38.565 39.8825 42.448 40.8188 44.1049 42.1544C44.6603 41.1998 44.9724 40.1533 44.9724 39.0472C44.9724 34.6318 40.0751 30.5469 34.0487 30.5469C28.0223 30.5469 23.125 34.6318 23.125 39.0472C23.125 40.1533 23.4279 41.2044 23.9879 42.1544C25.6448 40.8188 29.5323 39.8825 34.0487 39.8825Z" fill="#B4DFF5"/>
<path d="M34.0303 39.9074C38.5421 39.9074 42.4205 40.8391 44.0728 42.1656C44.6236 41.2155 44.9357 40.1782 44.9357 39.0812C44.9357 34.698 40.0476 30.6406 34.0257 30.6406C28.0039 30.6406 23.125 34.698 23.125 39.0767C23.125 40.1736 23.4279 41.2155 23.9833 42.161C25.6402 40.8345 29.5186 39.9028 34.0303 39.9028V39.9074Z" fill="#BAE1F6"/>
<path d="M34.0166 39.9415C38.5237 39.9415 42.3929 40.864 44.0453 42.1813C44.596 41.2404 44.9081 40.2077 44.9081 39.1199C44.9081 34.7688 40.0246 30.7344 34.0166 30.7344C28.0085 30.7344 23.125 34.7734 23.125 39.1199C23.125 40.2077 23.4279 41.2404 23.9833 42.1813C25.6356 40.864 29.5094 39.9415 34.0166 39.9415Z" fill="#BFE3F6"/>
<path d="M34.0497 39.971C38.5477 39.971 42.4169 40.8889 44.0646 42.1924C44.6154 41.2561 44.9275 40.2326 44.9275 39.154C44.9275 34.835 40.0531 30.8281 34.0497 30.8281C28.0462 30.8281 23.1719 34.8396 23.1719 39.1586C23.1719 40.2418 23.4748 41.2653 24.0302 42.197C25.6779 40.8889 29.5517 39.9756 34.0497 39.9756V39.971Z" fill="#C5E6F7"/>
<path d="M34.0313 40.0005C38.5247 40.0005 42.3847 40.9138 44.0325 42.2082C44.5832 41.281 44.8953 40.2621 44.8953 39.1927C44.8953 34.9058 40.0256 30.9219 34.0313 30.9219C28.0371 30.9219 23.1719 34.9058 23.1719 39.1881C23.1719 40.2621 23.4748 41.281 24.0256 42.2036C25.6733 40.9093 29.5379 39.9959 34.0313 39.9959V40.0005Z" fill="#CAE8F8"/>
<path d="M34.0175 40.03C38.5064 40.03 42.3618 40.9342 44.0049 42.2193C44.5557 41.3013 44.8632 40.2916 44.8632 39.2268C44.8632 34.972 40.0026 31.0156 34.0175 31.0156C28.0325 31.0156 23.1719 34.9766 23.1719 39.2268C23.1719 40.2916 23.4748 41.3013 24.0256 42.2193C25.6687 40.9342 29.5333 40.03 34.0175 40.03Z" fill="#CFEAF9"/>
<path d="M34.0506 40.0549C38.5303 40.0549 42.3811 40.9545 44.0243 42.2304C44.5704 41.3171 44.8825 40.3165 44.8825 39.2608C44.8825 35.0382 40.0266 31.1094 34.0506 31.1094C28.0747 31.1094 23.2188 35.0382 23.2188 39.2608C23.2188 40.3211 23.5217 41.3217 24.0725 42.2304C25.7156 40.9545 29.571 40.0549 34.0506 40.0549Z" fill="#D5ECFA"/>
<path d="M34.0369 40.089C38.5119 40.089 42.3536 40.9794 43.9967 42.2462C44.5429 41.342 44.855 40.346 44.855 39.2995C44.855 35.109 40.0082 31.2031 34.0369 31.2031C28.0656 31.2031 23.2188 35.109 23.2188 39.2949C23.2188 40.346 23.5171 41.3374 24.0679 42.2416C25.711 40.9748 29.5572 40.0844 34.0323 40.0844L34.0369 40.089Z" fill="#DAEFFA"/>
<path d="M34.0185 40.1184C38.489 40.1184 42.326 40.9997 43.9646 42.2573C44.5108 41.3577 44.8229 40.3709 44.8229 39.3336C44.8229 35.1752 39.9807 31.2969 34.0231 31.2969C28.0656 31.2969 23.2188 35.1798 23.2188 39.3336C23.2188 40.3755 23.5171 41.3623 24.0679 42.2573C25.7064 40.9997 29.5527 40.1184 34.0185 40.1184Z" fill="#DFF1FB"/>
<path d="M34.0516 40.1245C38.5175 40.1245 42.3454 41.0012 43.9839 42.2496C44.5301 41.3592 44.8376 40.3769 44.8376 39.3488C44.8376 35.2226 40 31.3672 34.0516 31.3672C28.1033 31.3672 23.2656 35.2226 23.2656 39.3488C23.2656 40.3815 23.564 41.3592 24.1147 42.2496C25.7533 41.0012 29.5904 40.1245 34.0516 40.1245Z" fill="#E4F3FC"/>
<path d="M34.0379 40.1586C38.4945 40.1586 42.3224 41.0261 43.9564 42.2653C44.5026 41.3795 44.8101 40.411 44.8101 39.3829C44.8101 35.2888 39.9816 31.4609 34.0379 31.4609C28.0941 31.4609 23.2656 35.2934 23.2656 39.3829C23.2656 40.411 23.564 41.3795 24.1147 42.2653C25.7487 41.0261 29.5858 40.1586 34.0379 40.1586Z" fill="#E9F5FC"/>
<path d="M34.0195 40.1835C38.4716 40.1835 42.2903 41.0464 43.9243 42.2764C44.4659 41.3952 44.778 40.4359 44.778 39.417C44.778 35.355 39.9541 31.5547 34.0241 31.5547C28.0941 31.5547 23.2656 35.3596 23.2656 39.417C23.2656 40.4359 23.564 41.3952 24.1101 42.2764C25.7441 41.0464 29.572 40.1835 34.0195 40.1835Z" fill="#EDF7FD"/>
<path d="M34.0526 40.2176C38.5001 40.2176 42.3142 41.0759 43.939 42.2922C44.4806 41.4201 44.7881 40.4654 44.7881 39.4557C44.7881 35.4258 39.9734 31.6484 34.048 31.6484C28.1226 31.6484 23.3125 35.4304 23.3125 39.4603C23.3125 40.47 23.6108 41.4247 24.157 42.2967C25.7864 41.0759 29.6097 40.2222 34.0526 40.2222V40.2176Z" fill="#F2F9FD"/>
<path d="M34.0388 40.2471C38.4772 40.2471 42.2867 41.0962 43.9115 42.3033C44.4531 41.4404 44.7606 40.4903 44.7606 39.4897C44.7606 35.492 39.9505 31.7422 34.0342 31.7422C28.118 31.7422 23.3125 35.4966 23.3125 39.4897C23.3125 40.4949 23.6108 41.4358 24.157 42.3033C25.7864 41.0962 29.6051 40.2471 34.0388 40.2471Z" fill="#F7FBFE"/>
<path d="M34.0205 40.2766C38.4542 40.2766 42.2591 41.1211 43.8793 42.319C44.4209 41.4607 44.7285 40.5244 44.7285 39.5284C44.7285 35.5628 39.9275 31.8359 34.0205 31.8359C28.1134 31.8359 23.3125 35.5674 23.3125 39.5284C23.3125 40.5244 23.6062 41.4607 24.1524 42.319C25.7772 41.1211 29.5913 40.2766 34.0205 40.2766Z" fill="#FBFDFF"/>
<path d="M34.0536 40.3061C38.4827 40.3061 42.2785 41.1414 43.8987 42.3301C44.4403 41.481 44.7478 40.5493 44.7478 39.5625C44.7478 35.6291 39.9515 31.9297 34.0536 31.9297C28.1557 31.9297 23.3594 35.6336 23.3594 39.5671C23.3594 40.5539 23.6531 41.481 24.1993 42.3347C25.8241 41.146 29.6336 40.3106 34.0582 40.3106L34.0536 40.3061Z" fill="white"/>
</g>
<path d="M33.9886 36.3828C30.1149 36.3828 26.5211 37.0346 23.5469 38.1453C25.3277 42.143 29.3346 44.9244 33.9978 44.9244C38.661 44.9244 42.645 42.143 44.4304 38.1453C41.4654 37.0346 37.8716 36.3828 33.9932 36.3828H33.9886Z" fill="#007BC7"/>
</svg>
