<svg width="89" height="87" viewBox="0 0 89 87" fill="none" xmlns="http://www.w3.org/2000/svg">
<path d="M48.2121 5.79865L82.6076 30.5942C83.7873 31.4446 84.4864 32.8103 84.4864 34.2645V76.6361C84.4864 80.3845 81.4477 83.4231 77.6994 83.4231H10.787C7.03862 83.4231 4 80.3845 4 76.6361V34.2645C4 32.8103 4.69902 31.4446 5.87871 30.5942L40.2743 5.79864C42.6444 4.09006 45.842 4.09006 48.2121 5.79865Z" fill="#4169E1" stroke="#4169E1" stroke-width="7.08422"/>
<path fill-rule="evenodd" clip-rule="evenodd" d="M25.9111 34.6719H62.5816V43.1657L62.584 43.1685L62.5816 43.1705V43.1729H62.5788L39.1806 63.1719H62.5816V71.6729H25.9111V63.1719H25.9159L25.9116 63.1673L49.2925 43.1729H25.9111V34.6719Z" fill="white"/>
</svg>
