<svg width="20" height="20" viewBox="0 0 20 20" fill="none" xmlns="http://www.w3.org/2000/svg">
<mask id="path-1-inside-1_832_9638" fill="white">
<path fill-rule="evenodd" clip-rule="evenodd" d="M9.94168 16.9944C9.93899 16.992 9.94063 16.9875 9.94425 16.9873C13.8794 16.7617 17.001 13.4957 17.001 9.49985C17.001 5.3578 13.6468 2 9.50928 2C5.37173 2 2.01758 5.3578 2.01758 9.49985C2.01758 10.9586 2.43362 12.3202 3.15341 13.472C3.41458 13.8899 3.40145 14.4381 3.06777 14.8008L2.58597 15.3244C1.99625 15.9654 2.4509 17.0015 3.32188 17.0015H9.93892C9.94267 17.0015 9.94445 16.9969 9.94168 16.9944Z"/>
</mask>
<path d="M3.06777 14.8008L2.22883 14.0289L3.06777 14.8008ZM9.94425 16.9873L9.87903 15.8491L9.94425 16.9873ZM15.861 9.49985C15.861 12.8891 13.2133 15.658 9.87903 15.8491L10.0095 18.1254C14.5455 17.8654 18.141 14.1024 18.141 9.49985H15.861ZM9.50928 3.14C13.0161 3.14 15.861 5.98623 15.861 9.49985H18.141C18.141 4.72936 14.2776 0.86 9.50928 0.86V3.14ZM3.15758 9.49985C3.15758 5.98623 6.0025 3.14 9.50928 3.14V0.86C4.74095 0.86 0.877578 4.72936 0.877578 9.49985H3.15758ZM4.12017 12.8678C3.51033 11.892 3.15758 10.7389 3.15758 9.49985H0.877578C0.877578 11.1784 1.35692 12.7484 2.18666 14.0761L4.12017 12.8678ZM3.42491 16.0963L3.90671 15.5726L2.22883 14.0289L1.74703 14.5526L3.42491 16.0963ZM9.93892 15.8615H3.32188V18.1415H9.93892V15.8615ZM1.74703 14.5526C0.48503 15.9242 1.45798 18.1415 3.32188 18.1415V15.8615C3.3377 15.8615 3.37062 15.8684 3.40226 15.8901C3.42915 15.9086 3.44307 15.9293 3.45008 15.9453C3.45708 15.9612 3.46288 15.9855 3.45827 16.0178C3.45285 16.0558 3.43562 16.0847 3.42491 16.0963L1.74703 14.5526ZM2.18666 14.0761C2.19045 14.0822 2.19289 14.0882 2.1942 14.0933C2.19555 14.0984 2.19509 14.1 2.19523 14.0972C2.1954 14.0941 2.19638 14.0849 2.20188 14.0713C2.20768 14.057 2.21693 14.0418 2.22883 14.0289L3.90671 15.5726C4.63827 14.7775 4.61166 13.6543 4.12017 12.8678L2.18666 14.0761ZM9.93892 18.1415C10.9844 18.1415 11.4822 16.8549 10.709 16.1513L9.17439 17.8375C8.40673 17.1389 8.90096 15.8615 9.93892 15.8615V18.1415ZM9.87903 15.8491C8.89639 15.9055 8.403 17.1355 9.17439 17.8375L10.709 16.1513C11.475 16.8484 10.9849 18.0695 10.0095 18.1254L9.87903 15.8491Z" fill="#B3B3C8" mask="url(#path-1-inside-1_832_9638)"/>
<rect x="6.08301" y="7.63281" width="6.85278" height="1.1" rx="0.55" fill="#B3B3C8"/>
<rect x="6.08301" y="10.2656" width="6.85278" height="1.1" rx="0.55" fill="#B3B3C8"/>
</svg>
