<svg width="63" height="12" viewBox="0 0 63 12" fill="none" xmlns="http://www.w3.org/2000/svg">
<path d="M12 3.5H9V5.25M10 7H9M9 7H12M9 7V5.25M9 5.25H12M13 3V5.25M13 7.5V5.25M13 5.25H14.5M14.5 5.25V3M14.5 5.25V7.5M10 8.5H14.5V11" stroke="#05367B" stroke-width="1.1"/>
<path d="M1 3.5H4M6.5 3.5H4M4 3.5C3.9932 3.5259 3.98637 3.55157 3.9795 3.57701M4 3.5H7M1 6.5C3.07362 5.71092 3.59399 5.00402 3.9795 3.57701M3.9795 3.57701C4.87928 5.23936 5.48645 5.97783 7 6.5M0 8H4M8 8H4M4 8V11" stroke="#05367B" stroke-width="1.1"/>
<path d="M22.0806 3.5H17.4032V7.08333H19.7419M22.0806 7.08333H19.7419M19.7419 7.08333V9.5H16H23.0161M23.9516 9C25.8071 7.14773 26.2743 5.80957 26.2903 3C26.2417 5.70613 26.4982 7.11527 28.629 9M29.5645 3V11M31.4355 3.5H34.7097C34.7097 6 33.7055 7.73281 31.4355 9M36.5806 3V11M38.9194 3.5H43.5968V6.5H37.9839H45M39.3871 8V10.5H43.5968V8H39.3871Z" stroke="#05367B" stroke-width="1.1"/>
<path d="M48.7764 3.75V9.8" stroke="#33C2E0" stroke-width="1.6"/>
<path d="M60.6187 3.75V9.8" stroke="#33C2E0" stroke-width="1.6"/>
<path d="M52.9214 1.54999V9.79999" stroke="#0066B3" stroke-width="1.4"/>
<path d="M59.4348 2.64996H57.6584M56.4741 2.64996H57.6584M57.6584 2.64996V9.79996" stroke="#6E85C2" stroke-width="1.8"/>
<path d="M53.5132 1H55.8817V12" stroke="#0F347E" stroke-width="1.4"/>
<path d="M50.5527 3.75V10.35H52.3291" stroke="#A6CE38" stroke-width="1.2"/>
<path d="M47 7.59994C49.3697 6.47121 52.8314 6.16251 55.882 7.83615C58.9326 9.50979 63.5797 5.94995 61.8033 6.5" stroke="white" stroke-width="0.5"/>
</svg>
