<svg width="73" height="16" viewBox="0 0 73 16" fill="none" xmlns="http://www.w3.org/2000/svg">
<path d="M0.84385 10.2974C1.4128 10.7581 2.72699 11.3591 4.20145 11.6676C6.72966 12.1965 9.67056 12.0282 9.68659 9.92073V8.25396H7.6512V10.073C6.333 10.1892 5.16305 9.51606 5.08692 8.24995C5.04285 7.47265 5.44352 6.84761 6.05654 6.49102C7.11831 5.882 9.02949 5.93409 10.52 6.73142C13.6332 8.40621 13.3928 12.3368 10.6522 13.8753C7.31864 15.7505 2.04986 14.4082 0.839844 13.8753V10.2934L0.84385 10.2974Z" fill="#233E86"/>
<path d="M12.23 5.23269C9.00065 3.62201 5.5509 4.06274 4.1686 5.16458C2.62603 6.39463 2.59397 8.43002 3.71584 9.42768C0.54656 8.34989 0.52252 5.52518 1.38796 4.16291C2.79431 1.9352 7.59831 0.877432 12.23 2.66441V5.22868V5.23269Z" fill="#EE2A23"/>
<path d="M18.9055 0.793069H18.4688C18.4688 0.793069 17.8598 1.78673 17.7476 1.96703C17.6394 1.79073 17.0304 0.793069 17.0304 0.793069H16.4414C16.4414 0.793069 17.4631 2.45183 17.4831 2.48789V3.72195H18.004V2.44783C18.0281 2.41177 19.0417 0.789062 19.0417 0.789062H18.9055V0.793069Z" fill="#223F8A"/>
<path d="M19.0499 1.75413C18.8696 1.96248 18.7734 2.25096 18.7734 2.60755C18.7734 2.96414 18.8696 3.24862 19.0499 3.46097C19.2382 3.67333 19.4946 3.78151 19.8072 3.78151C20.1197 3.78151 20.3721 3.67333 20.5604 3.46097C20.7487 3.25263 20.8409 2.96414 20.8409 2.60755C20.8409 2.25096 20.7487 1.96648 20.5604 1.75413C20.3761 1.54177 20.1197 1.43359 19.8072 1.43359C19.4946 1.43359 19.2382 1.54177 19.0499 1.75413ZM19.4305 3.14845C19.3384 3.02825 19.2903 2.84795 19.2903 2.60755C19.2903 2.36715 19.3384 2.17483 19.4305 2.05864C19.5187 1.94645 19.6429 1.89436 19.8072 1.89436C19.9714 1.89436 20.0956 1.95046 20.1838 2.05864C20.2759 2.17483 20.324 2.35914 20.324 2.60755C20.324 2.85596 20.2759 3.03226 20.1838 3.15246C20.0956 3.26465 19.9714 3.32074 19.8072 3.32074C19.6429 3.32074 19.5227 3.26465 19.4305 3.14845Z" fill="#223F8A"/>
<path d="M23.0339 1.48828H22.6092V3.07092C22.529 3.13102 22.4409 3.18311 22.3527 3.22317C22.2566 3.26725 22.1644 3.28728 22.0843 3.28728C21.9721 3.28728 21.912 3.27125 21.88 3.25923C21.8399 3.24321 21.8078 3.21115 21.7838 3.16708C21.7557 3.12301 21.7357 3.07092 21.7317 3.00681L21.7197 2.74638V1.48828H21.2148V2.91466C21.2148 3.19112 21.283 3.40347 21.4192 3.55172C21.5554 3.69997 21.7477 3.77609 21.9881 3.77609C22.1284 3.77609 22.2606 3.74805 22.3808 3.69596C22.4529 3.6599 22.537 3.60381 22.6132 3.55172V3.72H23.114V1.48828H23.0379H23.0339Z" fill="#223F8A"/>
<path d="M24.3278 1.56441C24.2516 1.60047 24.1595 1.65656 24.0633 1.72067V1.48828H23.5625V3.72H24.0633V2.20948C24.1435 2.14938 24.2276 2.09329 24.3117 2.05322C24.4039 2.00915 24.4961 1.98912 24.5962 1.98912L24.7605 1.99713L24.9047 2.02117L24.9929 2.0372L25.0169 1.94905V1.52033L24.8246 1.49229H24.6804C24.5602 1.48828 24.44 1.51232 24.3238 1.56441" fill="#223F8A"/>
<path d="M26.5546 0.792969H26.4785V3.72185H27.5403C27.7366 3.72185 27.9049 3.70182 28.0331 3.66576C28.1693 3.6297 28.2895 3.56559 28.4017 3.47744C28.4979 3.40132 28.578 3.30516 28.6341 3.18896C28.6902 3.07277 28.7182 2.93654 28.7182 2.7923C28.7182 2.57995 28.6581 2.40365 28.542 2.26342C28.4498 2.15925 28.3296 2.09113 28.1934 2.04305C28.2575 1.99497 28.3216 1.93888 28.3697 1.87477C28.4458 1.7706 28.4859 1.63838 28.4859 1.49414C28.4859 1.36592 28.4578 1.25374 28.4057 1.15758C28.3536 1.06142 28.2695 0.981283 28.1533 0.921182C28.0491 0.869096 27.945 0.837042 27.8368 0.821015L27.372 0.796975H26.5506L26.5546 0.792969ZM27.364 1.26576L27.6645 1.27778C27.7366 1.28579 27.8007 1.30182 27.8488 1.32986C27.8849 1.3499 27.9129 1.37394 27.9249 1.41C27.941 1.44606 27.953 1.49013 27.953 1.54622C27.953 1.61434 27.945 1.67444 27.9209 1.72652C27.9049 1.7706 27.8728 1.80666 27.8288 1.8347C27.7767 1.86676 27.7246 1.88679 27.6645 1.89881L27.4041 1.91484H27.0034V1.26976H27.368L27.364 1.26576ZM27.5002 2.38362L27.8047 2.39965C27.8809 2.40766 27.945 2.42369 27.997 2.45173C28.0692 2.48779 28.1172 2.53587 28.1453 2.58395C28.1733 2.64005 28.1854 2.71617 28.1854 2.81233C28.1854 2.89647 28.1733 2.96459 28.1453 3.01267C28.1172 3.06476 28.0772 3.10883 28.0171 3.1489C27.961 3.18496 27.8849 3.213 27.7967 3.22903L27.4121 3.25307H26.9994V2.38763H27.5002V2.38362Z" fill="#223F8A"/>
<path d="M29.3122 1.75834C29.1159 1.97069 29.0117 2.25917 29.0117 2.61977C29.0117 2.98037 29.1199 3.26885 29.3242 3.46919C29.5286 3.66952 29.8211 3.76969 30.1817 3.76969C30.3219 3.76969 30.4581 3.74965 30.5863 3.71359L31.0111 3.56935V3.51727V2.96435L30.8668 3.07653C30.8147 3.12461 30.7186 3.17269 30.5863 3.22478C30.4541 3.27687 30.3179 3.30491 30.1897 3.30491C30.0935 3.30491 30.0014 3.29289 29.9212 3.26485C29.8451 3.2368 29.777 3.20074 29.7209 3.14865C29.6608 3.09657 29.6167 3.02445 29.5847 2.94431C29.5606 2.88021 29.5526 2.80007 29.5446 2.71994H31.0551V2.45149C31.0551 2.13096 30.971 1.87854 30.8067 1.69824C30.6424 1.51793 30.406 1.42578 30.1015 1.42578C29.777 1.42578 29.5126 1.53396 29.3122 1.75032M30.0855 1.86251C30.2458 1.86251 30.362 1.90258 30.4421 1.99072C30.5022 2.06284 30.5343 2.16702 30.5503 2.29122H29.5526C29.5767 2.18304 29.6167 2.08688 29.6969 2.00675C29.789 1.91059 29.9212 1.86251 30.0855 1.86251Z" fill="#223F8A"/>
<path d="M31.9745 1.48989C31.8583 1.52595 31.7581 1.57804 31.682 1.64214C31.6019 1.70625 31.5418 1.78638 31.5017 1.87052C31.4616 1.95466 31.4416 2.04682 31.4416 2.14298C31.4416 2.29924 31.4857 2.43146 31.5738 2.53563C31.658 2.64381 31.8022 2.72394 31.9985 2.77603L32.2229 2.82812L32.4152 2.86418C32.5715 2.90024 32.6316 2.9363 32.6516 2.95633C32.6797 2.98438 32.6957 3.02445 32.6957 3.08455C32.6957 3.16468 32.6676 3.22077 32.6035 3.25683C32.5274 3.30091 32.4192 3.32094 32.279 3.32094C32.1668 3.32094 32.0466 3.2969 31.9184 3.25283C31.7942 3.20475 31.674 3.14064 31.5738 3.06051L31.4496 2.96435L31.4336 3.12061V3.56535L31.4737 3.58137L31.8102 3.70558C31.9424 3.74565 32.0907 3.76568 32.255 3.76568C32.5394 3.76568 32.7718 3.69757 32.9401 3.56535C33.1164 3.42912 33.2086 3.25283 33.2086 3.03647C33.2086 2.86418 33.1565 2.72394 33.0563 2.61576C32.9601 2.5156 32.8199 2.44348 32.6436 2.40341L32.2309 2.31927C32.1267 2.29523 32.0506 2.26318 32.0106 2.22712C31.9745 2.19907 31.9585 2.155 31.9585 2.09089C31.9585 2.01877 31.9865 1.97069 32.0506 1.93463C32.1267 1.89056 32.2229 1.87052 32.3351 1.87052C32.4473 1.87052 32.5635 1.89456 32.6837 1.93463C32.8039 1.9787 32.9081 2.0348 32.9882 2.0949L33.1084 2.19106L33.1284 2.0348V1.61009L33.0843 1.59006C32.9962 1.54598 32.884 1.50591 32.7518 1.47386C32.6196 1.44181 32.4874 1.42578 32.3551 1.42578C32.2149 1.42578 32.0827 1.44581 31.9705 1.48187" fill="#223F8A"/>
<path d="M34.1103 0.892578H33.6856V1.48957H33.4492V1.93431H33.6856V2.96804C33.6856 3.24049 33.7497 3.44483 33.8739 3.57305C34.0021 3.70126 34.1824 3.76937 34.4148 3.76937L34.6352 3.75335L34.9237 3.69725V3.63315V3.22046L34.7995 3.25251L34.6713 3.28857L34.511 3.3086C34.4028 3.3086 34.3467 3.29258 34.3227 3.28056C34.2906 3.26453 34.2626 3.24049 34.2425 3.20443C34.2145 3.16036 34.2025 3.11228 34.1985 3.06019L34.1905 2.80777V1.93031H34.9237V1.48557H34.1905V0.892578H34.1143H34.1103Z" fill="#223F8A"/>
<path d="M37.2596 0.836495C37.0833 0.904609 36.931 1.00478 36.8068 1.13299C36.6786 1.26521 36.5784 1.42948 36.5103 1.6178C36.4462 1.80611 36.4102 2.02247 36.4102 2.25887C36.4102 2.50728 36.4462 2.73165 36.5143 2.92397C36.5824 3.11629 36.6826 3.27656 36.8148 3.40478C36.939 3.53299 37.0953 3.62915 37.2716 3.68925C37.4439 3.74935 37.6362 3.7774 37.8445 3.7774L38.1531 3.74935L38.4055 3.68925L38.6339 3.60511L38.8622 3.50094V2.94401H38.73L38.706 2.96404C38.5778 3.07623 38.4375 3.16438 38.2933 3.22047C38.1491 3.27656 37.9888 3.30461 37.8205 3.30461C37.7043 3.30461 37.5881 3.28458 37.4839 3.24451C37.3798 3.20444 37.2876 3.14033 37.2075 3.05619C37.1314 2.97606 37.0673 2.87189 37.0192 2.73967C36.9711 2.60745 36.9471 2.44718 36.9471 2.26287C36.9471 2.07857 36.9711 1.92631 37.0152 1.79409C37.0592 1.66187 37.1193 1.55369 37.1995 1.46554C37.2796 1.3774 37.3718 1.31329 37.4759 1.27322C37.5761 1.23316 37.6963 1.20912 37.8245 1.20912C37.9848 1.20912 38.137 1.23716 38.2813 1.29326C38.4255 1.34534 38.5657 1.4375 38.714 1.5577L38.738 1.57773H38.8703V1.00878L38.8262 0.988749C38.6379 0.896595 38.4696 0.828482 38.3173 0.792422C38.1611 0.756362 38.0048 0.736328 37.8526 0.736328C37.6402 0.736328 37.4439 0.768382 37.2676 0.836495" fill="#223F8A"/>
<path d="M39.984 1.56441C39.9039 1.60047 39.8157 1.65656 39.7196 1.72067V1.48828H39.2188V3.72H39.7196V2.20948C39.7997 2.14938 39.8839 2.09329 39.968 2.05322C40.0602 2.00915 40.1523 1.98912 40.2525 1.98912L40.4167 1.99713L40.561 2.02117L40.6531 2.0372L40.6772 1.94905V1.52033L40.4889 1.49229H40.3446C40.2204 1.48828 40.1002 1.51232 39.988 1.56441" fill="#223F8A"/>
<path d="M41.1305 1.75834C40.9342 1.97069 40.834 2.25917 40.834 2.61977C40.834 2.98037 40.9382 3.26885 41.1465 3.46919C41.3549 3.66952 41.6433 3.76969 42.0039 3.76969C42.1442 3.76969 42.2804 3.74965 42.4126 3.71359L42.8333 3.56935V3.51727L42.8293 2.96435L42.6851 3.07653C42.633 3.12461 42.5368 3.1767 42.4046 3.22478C42.2724 3.27687 42.1402 3.30491 42.0079 3.30491C41.9118 3.30491 41.8236 3.29289 41.7435 3.26485C41.6634 3.2368 41.5993 3.20074 41.5432 3.14865C41.4831 3.09657 41.439 3.02445 41.4069 2.94431C41.3829 2.88021 41.3749 2.80007 41.3669 2.71994H42.8774V2.45149C42.8774 2.13096 42.7933 1.87854 42.629 1.69824C42.4647 1.51793 42.2243 1.42578 41.9238 1.42578C41.5993 1.42578 41.3348 1.53396 41.1345 1.75032M41.9078 1.86251C42.068 1.86251 42.1842 1.90258 42.2644 1.99072C42.3285 2.06284 42.3605 2.16702 42.3726 2.29122H41.3749C41.3989 2.18304 41.439 2.08688 41.5191 2.00675C41.6153 1.91059 41.7435 1.86251 41.9078 1.86251Z" fill="#223F8A"/>
<path d="M45.1457 0.671875H44.721V1.54132C44.6408 1.50927 44.5487 1.47321 44.5487 1.47321C44.4565 1.44917 44.3523 1.43715 44.2361 1.43715C44.1039 1.43715 43.9757 1.4652 43.8555 1.51728C43.7313 1.57338 43.6231 1.6495 43.531 1.75368C43.4388 1.85785 43.3627 1.98607 43.3106 2.13031C43.2585 2.27455 43.2305 2.44283 43.2305 2.62713C43.2305 2.97972 43.3106 3.2642 43.4669 3.46854C43.6271 3.67688 43.8475 3.78506 44.12 3.78506C44.2562 3.78506 44.3884 3.75702 44.5086 3.70493C44.5807 3.67288 44.6488 3.61678 44.7169 3.5687V3.72496H45.2178V0.671875H45.1417H45.1457ZM43.8635 3.13198C43.7874 3.01578 43.7513 2.84349 43.7513 2.61511C43.7513 2.38673 43.7994 2.20643 43.8956 2.08623C43.9917 1.97004 44.124 1.91395 44.2962 1.91395L44.5246 1.93398C44.5246 1.93398 44.6488 1.97805 44.7169 2.00209V3.0879C44.6448 3.144 44.5647 3.19208 44.4765 3.23214C44.3844 3.27221 44.2922 3.29224 44.2041 3.29224C44.0438 3.29224 43.9276 3.24016 43.8595 3.13598" fill="#223F8A"/>
<path d="M46.2382 0.78125H45.7734V1.29811H46.3183V0.78125H46.2422H46.2382ZM46.2182 1.49043H45.7935V3.72215H46.2943V1.49043H46.2182Z" fill="#223F8A"/>
<path d="M47.3291 0.892578H46.9044V1.48957H46.668V1.93431H46.9044V2.96804C46.9044 3.24049 46.9685 3.44483 47.0927 3.57305C47.2209 3.70126 47.4012 3.76937 47.6336 3.76937L47.8579 3.75335L48.1424 3.69725V3.63315V3.22046L48.0182 3.25251L47.89 3.28857L47.7297 3.3086C47.6216 3.3086 47.5655 3.29258 47.5414 3.28056C47.5054 3.26453 47.4813 3.24049 47.4613 3.20443C47.4332 3.16036 47.4212 3.11228 47.4172 3.06019L47.4092 2.80777V1.93031H48.1424V1.48557H47.4092V0.892578H47.3331H47.3291Z" fill="#223F8A"/>
<path d="M49.8144 0.792969H49.7383V3.72185H50.2632V2.69213H50.5556C50.76 2.69213 50.9363 2.66409 51.0765 2.61601C51.2167 2.56392 51.341 2.48379 51.4411 2.38362C51.5253 2.29948 51.5934 2.19931 51.6374 2.08713C51.6855 1.97093 51.7096 1.84672 51.7096 1.7145C51.7096 1.54222 51.6775 1.39397 51.6134 1.27778C51.5493 1.16158 51.4571 1.06142 51.341 0.985289C51.2448 0.921182 51.1326 0.873102 51.0084 0.845056C50.8842 0.817009 50.74 0.800982 50.5677 0.800982H49.8144V0.792969ZM50.5516 1.26576L50.8241 1.2898C50.8922 1.30582 50.9523 1.32986 51.0044 1.36192C51.0605 1.39798 51.1006 1.44205 51.1286 1.50215C51.1607 1.56225 51.1727 1.63437 51.1727 1.71851C51.1727 1.79063 51.1647 1.85474 51.1406 1.91083C51.1206 1.96693 51.0845 2.01901 51.0324 2.0711C50.9844 2.11918 50.9203 2.15524 50.8401 2.17928C50.756 2.20332 50.6398 2.21534 50.4996 2.21534H50.2632V1.26576H50.5516Z" fill="#223F8A"/>
<path d="M52.4592 1.46925L52.0946 1.54538V1.60548V2.06224L52.2188 2.03019L52.5553 1.92601L52.8478 1.89396L53.0562 1.90999L53.2044 1.95807C53.2445 1.98211 53.2725 2.01416 53.2926 2.05022C53.3126 2.08628 53.3206 2.13837 53.3206 2.19446C53.2044 2.20247 52.8238 2.23453 52.8238 2.23453C52.6355 2.25456 52.4792 2.29463 52.347 2.35473C52.2067 2.41883 52.0986 2.50297 52.0224 2.61516C51.9463 2.72735 51.9062 2.86758 51.9062 3.04388C51.9062 3.25623 51.9784 3.43653 52.1226 3.57676C52.2669 3.71299 52.4431 3.78511 52.6515 3.78511L52.936 3.75306L53.1523 3.67693L53.3166 3.58077V3.73303H53.8174V2.24254C53.8174 2.0983 53.7934 1.97409 53.7493 1.87393C53.7052 1.76975 53.6331 1.68561 53.545 1.62151C53.4568 1.5574 53.3567 1.50932 53.2365 1.48528C53.1243 1.46124 52.988 1.44922 52.8358 1.44922L52.4431 1.48528L52.4592 1.46925ZM52.5113 3.22818C52.4552 3.18411 52.4311 3.11199 52.4311 3.01583C52.4311 2.93169 52.4552 2.86758 52.4992 2.82351C52.5513 2.77142 52.6234 2.73536 52.7116 2.70732L53.0401 2.65523C53.0401 2.65523 53.2244 2.64321 53.3326 2.63119V3.08795C53.2886 3.116 53.0962 3.2362 53.0962 3.2362C53.0041 3.28027 52.8999 3.3003 52.7917 3.3003C52.6675 3.3003 52.5714 3.27626 52.5153 3.22818" fill="#223F8A"/>
<path d="M55.0543 1.56441C54.9742 1.60047 54.8861 1.65656 54.7899 1.72067V1.48828H54.2891V3.72H54.7899V2.20948C54.87 2.14938 54.9542 2.09329 55.0423 2.05322C55.1305 2.00915 55.2266 1.98912 55.3228 1.98912L55.4871 1.99713L55.7235 2.0372L55.7435 1.94905V1.52033L55.5512 1.49229H55.4109C55.2867 1.48828 55.1665 1.51232 55.0543 1.56441Z" fill="#223F8A"/>
<path d="M56.6338 0.892578H56.209V1.48957H55.9727V1.93431H56.209V2.96804C56.209 3.24049 56.2732 3.44483 56.3974 3.57305C56.5256 3.70126 56.7059 3.76937 56.9383 3.76937L57.1586 3.75335L57.4431 3.69725V3.63315V3.22046L57.3229 3.25251L57.1947 3.28857L57.0344 3.3086C56.9262 3.3086 56.8702 3.29258 56.8461 3.28056C56.8101 3.26453 56.782 3.24049 56.766 3.20443C56.7419 3.16036 56.7259 3.11228 56.7219 3.06019L56.7139 2.80777V1.93031H57.4471V1.48557H56.7139V0.892578H56.6418H56.6338Z" fill="#223F8A"/>
<path d="M58.6278 1.51773C58.5476 1.55379 58.4715 1.60989 58.3954 1.66197V1.48969H57.8945V3.72141H58.3954V2.13877C58.4755 2.07867 58.5636 2.02658 58.6518 1.98652C58.7439 1.94244 58.8361 1.92241 58.9202 1.92241C59.0044 1.92241 59.0685 1.93443 59.1166 1.95446C59.1606 1.9745 59.1927 1.99854 59.2167 2.0386C59.2448 2.07867 59.2608 2.13076 59.2688 2.20688L59.2848 2.46331V3.72141H59.7857V2.29904C59.7857 2.02658 59.7216 1.81423 59.5894 1.66197C59.4571 1.50972 59.2648 1.43359 59.0164 1.43359C58.8842 1.43359 58.752 1.46164 58.6237 1.51373" fill="#223F8A"/>
<path d="M60.4431 1.75834C60.2468 1.97069 60.1426 2.26318 60.1426 2.61977C60.1426 2.97637 60.2468 3.26885 60.4551 3.46919C60.6634 3.66952 60.9519 3.76969 61.3125 3.76969C61.4528 3.76969 61.589 3.74965 61.7212 3.71359L62.1419 3.56935V3.51727V2.96435L61.9977 3.07653C61.9456 3.12461 61.8494 3.17269 61.7172 3.22478C61.581 3.27687 61.4488 3.30491 61.3205 3.30491C61.2244 3.30491 61.1362 3.29289 61.0521 3.26485C60.972 3.2368 60.9079 3.20074 60.8518 3.14865C60.7957 3.09657 60.7476 3.02445 60.7155 2.94431C60.6875 2.88021 60.6835 2.80007 60.6755 2.71994H62.186V2.45149C62.186 2.13096 62.1018 1.87854 61.9376 1.69824C61.7733 1.51793 61.5369 1.42578 61.2324 1.42578C60.9079 1.42578 60.6434 1.53396 60.4471 1.75032M61.2164 1.86251C61.3766 1.86251 61.4968 1.90258 61.573 1.99072C61.6371 2.06284 61.6651 2.16702 61.6811 2.29122H60.6875C60.7115 2.18304 60.7516 2.08688 60.8317 2.00675C60.9279 1.91059 61.0561 1.86251 61.2204 1.86251" fill="#223F8A"/>
<path d="M63.2965 1.56441C63.2164 1.60047 63.1282 1.65656 63.0321 1.72067V1.48828H62.5312V3.72H63.0321V2.20948C63.1082 2.14938 63.1923 2.09329 63.2805 2.05322C63.3686 2.00915 63.4648 1.98912 63.565 1.98912L63.7333 1.99713L63.8775 2.02117L63.9656 2.0372L63.9897 1.94905V1.52033L63.8014 1.49229H63.6571C63.5369 1.48828 63.4167 1.51232 63.3005 1.56441" fill="#223F8A"/>
<path d="M35.6191 5.97656H34.1406V14.4186H35.6191V5.97656Z" fill="#1E2255"/>
<path d="M29.1752 10.8198H30.7098V13.0556L30.6898 13.0676C30.3051 13.2719 29.4838 13.4042 29.007 13.4042H29.003C27.1919 13.4042 26.2464 11.9417 26.2424 10.1507C26.2424 7.99513 27.7328 6.98545 29.5639 6.98545C30.3011 6.98545 31.1225 7.11367 31.8757 7.35407V6.25624C31.1025 5.9958 30.1368 5.85156 29.2514 5.85156C26.1983 5.85156 24.4474 7.69864 24.4434 10.2068C24.4434 12.7511 26.2063 14.538 28.8187 14.538C29.9606 14.538 31.2667 14.3377 32.1923 14.1173V9.88228H29.1793V10.8198H29.1752Z" fill="#1E2255"/>
<path d="M20.6966 9.36111C19.3143 8.8723 18.3327 8.60786 18.3327 7.94675C18.3327 7.28565 19.4586 6.97313 20.4001 6.97313C21.1574 6.97313 22.123 7.15744 22.7641 7.32572V6.19584C21.9628 5.99149 21.0412 5.86328 20.1597 5.86328C18.1684 5.86328 16.5137 6.70869 16.5137 8.23924C16.5137 9.4132 17.5274 9.94609 19.2182 10.519C20.6205 10.9918 21.7865 11.3284 21.7865 12.1458C21.7865 12.903 20.6325 13.3918 19.5027 13.3918C18.5691 13.3918 17.4152 13.1114 16.738 12.879V14.1411C17.6155 14.3494 18.8175 14.5257 19.8472 14.5257C22.127 14.5257 23.5454 13.3478 23.5454 11.9054C23.5454 10.4629 22.4355 9.97814 20.6966 9.36111Z" fill="#1E2255"/>
<path d="M45.5508 14.4186V5.97656H44.2246V7.93983H42.4336V8.87339H44.2246V14.4186H45.5508Z" fill="#1E2255"/>
<path d="M39.2321 9.8749C39.0759 10.1313 38.8796 10.4038 38.5871 10.6201C38.2826 10.8485 38.0141 11.0288 37.373 11.117V12.0746C37.6054 12.0585 38.8195 11.9423 39.6088 11.1731C39.8772 10.9086 40.0735 10.6362 40.2338 10.3797L40.2659 10.3277L40.2979 10.3797C40.4542 10.6362 40.6505 10.9126 40.919 11.1731C41.7043 11.9423 42.9223 12.0625 43.1547 12.0786V11.117C42.5096 11.0288 42.2412 10.8485 41.9367 10.6201C41.6482 10.4038 41.4518 10.1313 41.2956 9.8749C41.1353 9.61848 41.0231 9.34602 40.959 9.06956C40.8909 8.78909 40.8549 8.50061 40.8549 8.19611V6.06055H39.6689V8.19611C39.6689 8.49661 39.6368 8.78909 39.5687 9.06956C39.5006 9.35003 39.3884 9.61848 39.2321 9.8749Z" fill="#1E2255"/>
<path d="M72.74 9.95898H64.959V10.8925H72.74V9.95898Z" fill="#1E2255"/>
<path d="M68.8245 8.33243L68.8486 8.3124L68.8726 8.33243C69.8743 9.26198 71.8296 9.31808 72.2463 9.31407H72.2903V8.48869C71.5691 8.40055 69.9384 8.26432 69.4496 7.0503L69.4255 6.9902H72.3104V6.05664H65.3828V6.9902H68.2676L68.2476 7.0503C67.7548 8.26833 66.124 8.40455 65.4069 8.48869V9.31407H65.4469C65.8636 9.31407 67.8229 9.25798 68.8245 8.33243Z" fill="#1E2255"/>
<path d="M56.828 6.11719V10.2881C56.828 10.9573 57.1846 11.3138 57.8937 11.3138H59.4363V13.3693H56.2109V14.3028H63.9879V13.3693H60.7185V11.3138H63.3148V6.11719H62.0326V7.97228H58.1101V6.11719H56.828ZM58.1101 8.89382H62.0326V10.3963H58.5388C58.3866 10.3963 58.2744 10.3723 58.2023 10.2921C58.1301 10.212 58.1101 10.0918 58.1101 9.91952V8.89782V8.89382Z" fill="#1E2255"/>
<path d="M54.8746 10.2597V9.32617H47.0977V10.2597H50.323V10.7325H47.5785V11.6541H53.0676V12.1228H47.5825V13.3929C47.5825 14.0621 47.9391 14.4187 48.6442 14.4187H54.3898V13.5011H49.117C49.0409 13.5011 48.9888 13.4891 48.9527 13.449C48.9167 13.409 48.9087 13.3489 48.9087 13.2647V13.0404H54.3978V10.7325H51.6532V10.2597H54.8786H54.8746Z" fill="#1E2255"/>
<path d="M50.9885 5.48828C49.0172 5.48828 47.8633 6.28962 47.8633 7.29529C47.8633 8.30097 49.0212 9.1023 50.9885 9.1023C52.9558 9.1023 54.1177 8.30097 54.1177 7.29529C54.1177 6.28962 52.9598 5.48828 50.9885 5.48828ZM50.9885 8.24087C49.8506 8.24087 49.1815 7.81616 49.1815 7.29129C49.1815 6.76641 49.8506 6.3417 50.9885 6.3417C52.1264 6.3417 52.7955 6.76641 52.7955 7.29129C52.7955 7.81616 52.1264 8.24087 50.9885 8.24087Z" fill="#1E2255"/>
<path d="M68.848 11.3496C66.8767 11.3496 65.7188 12.175 65.7188 13.2087C65.7188 14.2424 66.8767 15.0678 68.848 15.0678C70.8193 15.0678 71.9772 14.2424 71.9772 13.2087C71.9772 12.175 70.8193 11.3496 68.848 11.3496ZM68.848 14.2104C67.7101 14.2104 67.041 13.7616 67.041 13.2087C67.041 12.6558 67.7141 12.207 68.848 12.207C69.9819 12.207 70.655 12.6558 70.655 13.2087C70.655 13.7616 69.9859 14.2104 68.848 14.2104Z" fill="#1E2255"/>
</svg>
