<svg width="100" height="15" viewBox="0 0 100 15" fill="none" xmlns="http://www.w3.org/2000/svg">
<path d="M14.3533 1.15728C13.8568 0.715397 13.1848 0.464844 12.5061 0.464844H12.4263C12.4263 0.464844 12.4218 0.464844 12.4172 0.464844C11.743 0.489899 11.0096 0.740453 10.5176 1.22106C10.8797 0.847507 11.636 0.82473 12.0209 1.21878L13.8044 3.03188C14.3055 3.50793 15.0458 3.74937 15.72 3.76532H16.9204L14.3533 1.15728Z" fill="url(#paint0_linear_868_3528)"/>
<path d="M12.415 0.464844H10.0233C9.34913 0.464844 8.59974 0.738175 8.10091 1.22334L5.59766 3.76532H6.82537C7.47909 3.75165 8.1943 3.5216 8.69541 3.07516L10.5176 1.22562C11.0096 0.74273 11.7453 0.492177 12.4173 0.464844C12.4788 0.464844 12.415 0.464844 12.415 0.464844Z" fill="url(#paint1_linear_868_3528)"/>
<path d="M7.16974 4.45508C6.66863 4.45508 6.41124 4.73524 6.41124 5.22952V8.14733C6.41124 8.40016 6.21308 8.58466 5.97619 8.58466H3.51393C3.27705 8.58466 3.0766 8.40016 3.0766 8.14733V4.45736H1.62567C1.11773 4.45736 0.839844 4.70563 0.839844 5.19535V14.3952H3.0766V10.5162C3.0766 10.2634 3.27705 10.0789 3.51393 10.0789H5.97619C6.21308 10.0789 6.41124 10.2634 6.41124 10.5162V14.3952H8.64801V4.45508H7.16974Z" fill="#0054A3"/>
<path d="M10.8828 4.45508C10.3658 4.45508 10.0879 4.73296 10.0879 5.25002V14.3975H12.3247V10.5185C12.3247 10.2679 12.5205 10.0834 12.7551 10.0811H15.6433C16.1604 10.0811 16.436 9.80326 16.436 9.28621V8.57782H12.7574C12.5274 8.57782 12.3224 8.38649 12.3224 8.14733V6.39573C12.3224 6.1429 12.5205 5.9584 12.7597 5.9584H16.124C16.641 5.9584 16.9189 5.68051 16.9189 5.16574V4.45736H10.8806L10.8828 4.45508Z" fill="#0054A3"/>
<path d="M41.8812 9.93555V11.0744H45.3411V14.5047H46.8103V11.0744H50.2702V9.93555H41.8789H41.8812Z" fill="#0054A3"/>
<path d="M42.4838 9.12049C43.8186 8.86083 45.4381 7.86772 46.0781 6.92928C46.8321 8.02489 48.4789 8.90182 49.6724 9.12049L49.7134 9.12732L50.2851 8.03172L50.2236 8.00894C48.8729 7.53061 47.4015 6.88601 46.9482 5.35763H49.9389V4.21875H42.2173V5.35763H45.208C44.7547 6.89512 43.2856 7.53517 41.9326 8.00894L41.8711 8.03172L42.4451 9.1296L42.4861 9.12277L42.4838 9.12049Z" fill="#0054A3"/>
<path d="M78.4435 9.84368H80.2566V8.7048H71.3984V9.84368H73.2115V10.8368H73.7696C72.5965 11.224 71.854 11.9369 71.854 12.7205C71.854 14.1942 73.9131 14.8639 75.8264 14.8639C76.8582 14.8639 77.8217 14.6771 78.5347 14.3377C79.3524 13.9482 79.7874 13.3902 79.7874 12.7205C79.7874 11.9096 79.1041 11.2513 77.8627 10.8368H78.439V9.84368H78.4435ZM74.6944 9.84368H76.963V10.6227C76.2 10.5156 75.4574 10.5156 74.6944 10.6227V9.84368ZM78.2203 12.7091C78.2203 13.069 77.8263 13.2877 77.4983 13.4084C77.0632 13.5678 76.4756 13.6544 75.8423 13.6544C74.6534 13.6544 73.4484 13.3287 73.4484 12.7068C73.4484 12.3447 73.8379 12.126 74.1659 12.0053C74.5964 11.8458 75.1795 11.7593 75.8105 11.7593C77.0086 11.7593 78.2203 12.085 78.2203 12.7068V12.7091ZM73.1159 7.75953C73.8356 8.11486 74.8014 8.31075 75.8355 8.31075C77.742 8.31075 79.792 7.6092 79.792 6.07399C79.792 4.53878 77.742 3.80078 75.8355 3.80078C74.8014 3.80078 73.8356 3.99895 73.1159 4.36111C72.2936 4.77338 71.8585 5.3656 71.8585 6.07171C71.8585 6.77781 72.2936 7.34953 73.1159 7.75725V7.75953ZM75.8355 4.97611C77.02 4.97611 78.2203 5.34966 78.2203 6.0626C78.2203 6.77554 77.02 7.13087 75.8355 7.13087C74.6511 7.13087 73.4484 6.76415 73.4484 6.0626C73.4484 5.36105 74.6488 4.97611 75.8355 4.97611Z" fill="#0054A3"/>
<path d="M23.7762 6.27978C23.4869 6.59866 23.332 7.04966 23.332 7.58721C23.332 8.81037 24.07 9.36842 24.7579 9.36842C25.1315 9.36842 25.4777 9.20898 25.7328 8.9197C26.0198 8.59626 26.1701 8.13615 26.1701 7.58721C26.1701 6.38455 25.439 5.83789 24.7579 5.83789C24.3844 5.83789 24.0336 5.99506 23.7739 6.28205L23.7762 6.27978ZM23.4459 7.58721C23.4459 6.46427 24.127 5.95178 24.7602 5.95178C25.3934 5.95178 26.0585 6.46427 26.0585 7.58721C26.0585 8.10654 25.9173 8.54159 25.6485 8.84226C25.4139 9.10648 25.0973 9.25453 24.7579 9.25453C24.1247 9.25453 23.4459 8.73292 23.4459 7.58721Z" fill="#0054A3"/>
<path d="M21.9775 7.58738C21.9775 9.49842 23.4193 10.3685 24.7586 10.3685C26.098 10.3685 27.5421 9.49842 27.5421 7.58738C27.5421 6.70816 27.1571 6.15467 26.5307 5.58295H27.6605V4.44407H25.5513V3.75391H23.9591V4.44407H21.8613V5.58295H22.9865C22.3078 6.18428 21.9798 6.82205 21.9798 7.58738H21.9775ZM26.1162 7.58738C26.1162 9.8993 23.3897 9.87425 23.3897 7.58738C23.3897 5.30051 26.1162 5.31189 26.1162 7.58738ZM24.1368 11.0678H22.6563L22.6677 12.8285C22.6677 13.7464 23.3669 14.4935 24.2256 14.4935H30.1455V13.3547H24.1368V11.0678ZM30.0339 6.74461V3.98168H29.1C28.7538 3.98168 28.5648 4.1639 28.5648 4.49646V11.5188H30.0339V7.87437H31.1136V6.74688H30.0339V6.74461Z" fill="#0054A3"/>
<path d="M96.7095 12.4346C95.147 11.4279 94.3543 9.97693 94.3543 8.12283V4.21875H92.8829V8.11144C92.8829 10.2958 91.9399 11.4187 90.5254 12.4369L90.4844 12.4665L91.0675 13.5849L91.1176 13.5598C91.9285 13.1544 93.0947 12.1454 93.6231 11.1933C94.3634 12.2934 95.295 13.1795 96.1309 13.5621L96.1788 13.5849L96.7505 12.4665L96.7072 12.4392L96.7095 12.4346Z" fill="#0054A3"/>
<path d="M59.2848 3.97852C58.9386 3.97852 58.7495 4.16074 58.7495 4.49329V5.94422H58.0616V3.97852H57.228C56.8817 3.97852 56.6927 4.16074 56.6927 4.49329V8.31993C55.9638 8.64337 55.2782 8.67298 54.5243 8.67298H53.4127V7.49993H55.6814V6.36105H53.4127V5.35656H55.916V4.21768H51.9436V8.13315C51.9367 8.58415 52.1121 9.02375 52.4196 9.34264C52.7134 9.64558 53.0961 9.81186 53.5015 9.81186H54.4491C55.1597 9.81186 55.9729 9.77997 56.695 9.47703V10.0989H58.0639V7.08538H58.7518V10.0989H60.1207V3.97852H59.287H59.2848Z" fill="#0054A3"/>
<path d="M52.3867 10.6133V11.7522H58.6392V14.5037H60.1152V12.2783C60.1152 11.3604 59.4136 10.6133 58.5503 10.6133H52.3867Z" fill="#0054A3"/>
<path d="M40.5023 9.41807V8.27919H39.6436C39.8713 7.63003 39.9214 7.18358 39.9214 6.6802L39.8918 6.32031H38.466V6.8237C38.466 7.40453 38.4523 7.67558 38.1949 8.27919H32.1133V9.41807H35.5732V10.6731H32.5574V11.812H38.5821V14.5043H40.0581V12.3382C40.0581 11.4202 39.3566 10.6731 38.4933 10.6731H37.0424V9.41807H40.5023Z" fill="#0054A3"/>
<path d="M32.5547 4.21875V5.35763H38.4632V6.68329H39.9187V5.88607C39.9187 4.96813 39.2354 4.22103 38.3744 4.22103H32.5547V4.21875Z" fill="#0054A3"/>
<path d="M62.207 10.1602L62.2184 12.8274C62.2184 13.7522 62.9177 14.5038 63.7764 14.5038H69.7077V10.1602H62.207ZM68.2818 13.4219H63.6306V11.2421H68.2818V13.4219Z" fill="#0054A3"/>
<path d="M63.5762 11.1855V13.4793H68.339V11.1855H63.5762ZM68.2274 11.2994V13.3654H63.6901V11.2994H68.2274Z" fill="#0054A3"/>
<path d="M69.2963 8.21915C69.4922 7.69982 69.565 7.18049 69.5878 6.67938H69.5947V6.45616C69.5947 6.39922 69.5947 6.34227 69.5947 6.28761C69.5947 6.22383 69.5947 6.15777 69.5947 6.094V5.87989C69.5947 4.96195 68.8931 4.21484 68.0298 4.21484H62.2102V5.35372H68.1164V6.03705V6.8821C68.1164 7.36043 68.0162 7.78637 67.8112 8.21915H61.8867V9.35803H70.0548V8.21915H69.2963Z" fill="#0054A3"/>
<path d="M89.0332 8.33922C89.2155 7.78572 89.277 7.25728 89.2975 6.68101H89.3111V5.88379C89.3111 4.96586 88.6096 4.21875 87.7463 4.21875H81.9266V5.35763H87.8351V7.00445C87.8351 7.69917 87.7281 8.18205 87.5436 8.3415H85.3342V6.60129H83.865V8.3415H81.6055V9.48038H89.7735V8.3415H89.0355L89.0332 8.33922Z" fill="#0054A3"/>
<path d="M98.7856 7.07822V3.98047H97.8494C97.5055 3.98047 97.3164 4.16269 97.3164 4.49524V14.4946H98.7856V8.2171H99.8652V7.07822H98.7856Z" fill="#0054A3"/>
<path d="M85.6382 10.1953C84.6587 10.1953 83.7408 10.4003 83.0552 10.7716C82.2739 11.1952 81.8594 11.7989 81.8594 12.5186C81.8594 14.1085 83.8069 14.8328 85.6154 14.8328C86.5926 14.8328 87.5014 14.6301 88.1779 14.2634C88.95 13.842 89.36 13.2407 89.36 12.5209C89.36 10.9265 87.4308 10.1976 85.6382 10.1976V10.1953ZM87.1096 13.391C86.7156 13.5869 86.1848 13.694 85.6108 13.694C84.5722 13.694 83.4538 13.325 83.4538 12.5186C83.4538 11.7123 84.5449 11.3433 85.6245 11.3433C86.7042 11.3433 87.7702 11.71 87.7702 12.5186C87.7702 12.9696 87.4126 13.243 87.1096 13.391Z" fill="#0054A3"/>
<defs>
<linearGradient id="paint0_linear_868_3528" x1="16.6584" y1="3.91337" x2="10.7408" y2="0.070791" gradientUnits="userSpaceOnUse">
<stop offset="0.01" stop-color="#FFC215"/>
<stop offset="0.14" stop-color="#FDBC15"/>
<stop offset="0.3" stop-color="#F9AE17"/>
<stop offset="0.47" stop-color="#F39619"/>
<stop offset="0.65" stop-color="#EB741D"/>
<stop offset="0.84" stop-color="#E04A21"/>
<stop offset="1" stop-color="#D51F26"/>
</linearGradient>
<linearGradient id="paint1_linear_868_3528" x1="10.8319" y1="0.371455" x2="6.81854" y2="3.73798" gradientUnits="userSpaceOnUse">
<stop stop-color="#E4E51A"/>
<stop offset="1" stop-color="#0BA84F"/>
</linearGradient>
</defs>
</svg>
