<svg width="97" height="16" viewBox="0 0 97 16" fill="none" xmlns="http://www.w3.org/2000/svg">
<path d="M56.2941 10.1255H55.5695V8.49801H54.7932V11.4558C54.2162 11.5153 53.6622 11.544 53.137 11.544H52.5523V10.7964H54.0245V10.1082H52.5523V9.42772H54.128V8.72421H51.8047V12.2303H53.1293C53.7063 12.2303 54.2603 12.2015 54.7932 12.1344V12.4603H55.5695V10.8328H56.2941V12.4603H57.0782V8.49609H56.2941V10.1236V10.1255Z" fill="#036EB8"/>
<path d="M52.8086 13.5277H56.2993V15.0364H57.0757V12.8242H52.8086V13.5277Z" fill="#036EB8"/>
<path d="M61.2839 12.1887H63.0743V11.4641H59.5164V9.56253H63.0225V8.83984H58.7171V12.1887H60.4845V13.5574H58.0078V14.282H63.7605V13.5574H61.2839V12.1887Z" fill="#036EB8"/>
<path d="M69.7818 8.49805H68.9824V14.9543H69.7818V8.49805Z" fill="#036EB8"/>
<path d="M74.1803 12.3301H75.9477V8.71289H75.1484V9.76337H72.4129V8.71289H71.6135V12.3301H73.3809V13.557H70.9023V14.2816H76.657V13.557H74.1784V12.3301H74.1803ZM72.4129 11.6113V10.488H75.1484V11.6113H72.4129Z" fill="#036EB8"/>
<path d="M88.0303 9.80088C88.0303 10.2437 87.9709 10.7248 87.8521 11.2347H88.6361C88.7626 10.7325 88.8278 10.2284 88.8278 9.72612V8.66797H84.4648V9.37723H88.0303V9.79896V9.80088Z" fill="#036EB8"/>
<path d="M96.1735 10.599H95.1958V8.49805H94.3965V14.9543H95.1958V11.3524H96.1735V10.599Z" fill="#036EB8"/>
<path d="M45.3379 11.1479L45.5718 11.8438C46.8312 11.585 47.5711 11.0713 47.9909 10.5288C48.4088 11.0713 49.1488 11.585 50.4101 11.8438L50.644 11.1479C49.7257 10.939 48.6829 10.477 48.5104 9.45337H50.2031V8.74219H45.7807V9.45337H47.4734C47.3027 10.477 46.258 10.939 45.3398 11.1479H45.3379Z" fill="#036EB8"/>
<path d="M45.1113 12.9589H47.5899V15.0733H48.3874V12.9589H50.866V12.2324H45.1113V12.9589Z" fill="#036EB8"/>
<path d="M66.7602 9.77827V8.68945H65.9186V9.77827C65.9186 10.4396 65.8036 11.8754 64.1953 12.9815L64.6324 13.547C65.5161 12.9623 66.0356 12.2741 66.3404 11.6319C66.6452 12.2741 67.1627 12.9623 68.0483 13.547L68.4854 12.9815C66.8771 11.8754 66.764 10.4396 66.7621 9.77827H66.7602Z" fill="#036EB8"/>
<path d="M92.4223 9.83773C92.4223 9.81856 92.4223 9.79748 92.4223 9.78022V8.69141H91.5807V9.78022C91.5807 10.4416 91.4657 11.8773 89.8574 12.9834L90.2945 13.5489C91.1782 12.9642 91.6977 12.2761 92.0025 11.6339C92.3073 12.2761 92.8248 12.9642 93.7105 13.5489L94.1475 12.9834C92.5833 11.908 92.4338 10.524 92.4242 9.83965L92.4223 9.83773Z" fill="#036EB8"/>
<path d="M77.7168 10.7459L77.9602 11.3785C79.1564 11.1101 79.8446 10.6846 80.228 10.2514C80.6114 10.6846 81.2995 11.1101 82.4957 11.3785L82.7411 10.7459C81.5392 10.4507 80.8126 9.97532 80.688 9.36957H82.4401V8.66797H78.0178V9.36957H79.7698C79.6452 9.97532 78.9187 10.4507 77.7168 10.7459Z" fill="#036EB8"/>
<path d="M77.3516 12.4708H78.9215C78.6244 12.768 78.4423 13.1648 78.4423 13.6037C78.4423 14.5239 79.2417 15.2696 80.2289 15.2696C81.2161 15.2696 82.0155 14.5239 82.0155 13.6037C82.0155 13.1648 81.8333 12.768 81.5362 12.4708H83.1062V11.7539H77.3516V12.4708ZM80.2289 14.5545C79.6825 14.5545 79.2417 14.129 79.2417 13.6057C79.2417 13.0823 79.6845 12.6549 80.2289 12.6549C80.7733 12.6549 81.2161 13.0804 81.2161 13.6057C81.2161 14.1309 80.7733 14.5545 80.2289 14.5545Z" fill="#036EB8"/>
<path d="M86.6225 10.3457H85.8193V11.7508H83.8027V12.4677H85.3727C85.0775 12.7649 84.8935 13.1617 84.8935 13.6007C84.8935 14.5208 85.6928 15.2665 86.68 15.2665C87.6673 15.2665 88.4666 14.5208 88.4666 13.6007C88.4666 13.1617 88.2845 12.7649 87.9874 12.4677H89.5574V11.7508H86.6245V10.3457H86.6225ZM86.6781 14.5515C86.1318 14.5515 85.6909 14.1259 85.6909 13.6026C85.6909 13.0792 86.1337 12.6518 86.6781 12.6518C87.2225 12.6518 87.6654 13.0773 87.6654 13.6026C87.6654 14.1278 87.2225 14.5515 86.6781 14.5515Z" fill="#036EB8"/>
<path d="M8.75409 1.71259C10.3739 1.51515 11.1349 1.90812 11.363 2.35476C11.5566 2.73048 11.5298 3.25381 10.8972 3.75412C10.8972 3.75412 10.1151 4.34837 10.2416 5.1554C10.372 5.98352 11.6295 6.84039 13.0097 6.16179C14.386 5.48512 14.5758 3.70812 14.0257 2.73432C13.4774 1.76051 12.3177 1.24294 10.7477 1.20652C10.1535 1.1931 9.23716 1.27361 8.76942 1.43464C8.76942 1.43464 8.59498 1.47873 8.57965 1.58032C8.56623 1.67042 8.64291 1.71834 8.75217 1.71067L8.75409 1.71259Z" fill="url(#paint0_radial_868_3581)"/>
<path d="M10.5965 7.03827C10.401 6.84083 9.77222 7.11303 9.86423 6.20441C9.94474 5.42805 9.12238 5.31112 8.75625 5.2977C8.69299 5.2977 8.63165 5.2977 8.57605 5.2977C8.38819 5.30537 8.13324 5.2977 8.13324 5.2977C6.65337 5.24402 5.48404 4.66319 5.20609 3.7124C4.92621 2.75585 5.44379 1.73029 7.27446 1.13795C7.27446 1.13795 7.47382 1.05744 7.3703 0.917507C7.31471 0.842747 7.14602 0.873418 7.14602 0.873418C2.78308 1.57118 0.317907 4.10153 0.933243 6.86192C1.22078 8.15393 2.69299 9.26958 4.32046 9.61271C4.46615 9.64338 6.44251 10.182 8.43804 9.57629C9.39075 9.28875 10.0962 8.84786 10.4719 8.24977C10.7978 7.71687 10.7939 7.23188 10.5984 7.03827H10.5965Z" fill="url(#paint1_radial_868_3581)"/>
<path d="M24.7636 12.5009C24.7636 13.9942 26.4927 15.2096 28.6185 15.2096C30.7444 15.2096 32.4735 13.9942 32.4735 12.5009V6.47985C32.4735 6.29007 32.3106 6.13672 32.1093 6.13672H30.6026V12.4492C30.6026 13.2466 29.6939 13.9214 28.6205 13.9214C27.547 13.9214 26.6364 13.2466 26.6364 12.4492V6.48177C26.6364 6.29199 26.4716 6.13864 26.2703 6.13864H23.9316V7.08368H24.3016C24.3955 7.0856 24.7655 7.12394 24.7655 7.561V12.5029L24.7636 12.5009Z" fill="#036EB8"/>
<path d="M22.3768 6.13672H20.8682V9.86324H16.9039V6.47985C16.9039 6.29007 16.7391 6.13672 16.5378 6.13672H14.1953V7.08177H14.5634C14.6573 7.08368 15.0273 7.12202 15.0273 7.55908V14.2358C15.0273 14.6977 15.4011 15.0735 15.863 15.0735H16.9039V11.2492H20.8682V14.2358C20.8682 14.6977 21.242 15.0735 21.7039 15.0735H22.7448V6.47985C22.7448 6.29007 22.58 6.13672 22.3768 6.13672Z" fill="#036EB8"/>
<path d="M41.7155 14.4122V10.3138C41.7155 10.1259 41.5545 9.97062 41.3571 9.97062H38.0887V11.232H39.3807C39.5015 11.2358 39.9769 11.2837 39.9769 11.8454V13.563C39.5705 13.8026 38.8842 13.8313 38.6408 13.8332C37.9123 13.839 37.3699 13.5419 37.3699 13.5419C36.444 13.0645 35.8804 12.3572 35.7155 10.9406C35.543 9.45688 35.9437 8.34889 36.7929 7.66455C37.1801 7.35209 37.7207 7.19873 38.3935 7.17957C38.5488 7.17573 38.704 7.18915 38.8593 7.20832C39.6261 7.30608 40.4504 7.63963 40.4599 8.79554V9.08308L40.552 9.09458C40.9047 9.1425 41.2286 9.0179 41.4721 8.74187C41.727 8.45433 41.8555 8.04218 41.8171 7.64346C41.7692 7.16231 41.4491 6.74059 40.9143 6.45688C40.412 6.18851 39.6127 6.03516 38.7232 6.03516C38.1615 6.03516 37.6133 6.09842 37.1782 6.21151C36.4708 6.39554 35.8766 6.70608 35.3072 7.18723C34.1877 8.13036 33.7181 9.30928 33.7833 11.0077C33.8159 11.807 34.0497 13.1355 35.2612 14.092C36.0663 14.7246 37.2069 15.0716 38.5603 15.0965C39.8369 15.1099 41.1558 14.7323 41.7117 14.4102L41.7155 14.4122Z" fill="#036EB8"/>
<defs>
<radialGradient id="paint0_radial_868_3581" cx="0" cy="0" r="1" gradientUnits="userSpaceOnUse" gradientTransform="translate(10.9106 7.28703) scale(5.22939)">
<stop stop-color="#8FC31F"/>
<stop offset="0.17" stop-color="#88C020"/>
<stop offset="0.41" stop-color="#76B824"/>
<stop offset="0.68" stop-color="#59AB2A"/>
<stop offset="0.98" stop-color="#309933"/>
<stop offset="1" stop-color="#2E9834"/>
</radialGradient>
<radialGradient id="paint1_radial_868_3581" cx="0" cy="0" r="1" gradientUnits="userSpaceOnUse" gradientTransform="translate(10.1556 10.1073) scale(10.062)">
<stop stop-color="#20AEE5"/>
<stop offset="0.22" stop-color="#1DA8E0"/>
<stop offset="0.52" stop-color="#1597D5"/>
<stop offset="0.85" stop-color="#097CC2"/>
<stop offset="1" stop-color="#036EB8"/>
</radialGradient>
</defs>
</svg>
