<svg width="83" height="15" viewBox="0 0 83 15" fill="none" xmlns="http://www.w3.org/2000/svg">
<path d="M66.1597 4.34326V11.6984" stroke="#33C2E0" stroke-width="1.6"/>
<path d="M80.5566 4.34326V11.6984" stroke="#33C2E0" stroke-width="1.6"/>
<path d="M71.1987 1.66864V11.6984" stroke="#0066B3" stroke-width="1.4"/>
<path d="M79.1174 3.00592H76.9578M75.5181 3.00592H76.9578M76.9578 3.00592V11.6984" stroke="#6E85C2" stroke-width="1.8"/>
<path d="M71.9185 1H74.798V14.373" stroke="#0F347E" stroke-width="1.4"/>
<path d="M68.3188 4.34326V12.3671H70.4785" stroke="#A6CE38" stroke-width="1.2"/>
<path d="M64 9.02379C66.8809 7.65156 71.0894 7.27625 74.7981 9.31095C78.5068 11.3457 84.1565 7.01783 81.9968 7.68655" stroke="white" stroke-width="0.5"/>
<path d="M10.043 9.49219H5.89453V13.0781H4.41797V9.49219H0.316406V8.29688H10.043V9.49219ZM9.17578 4.14844H6.06445C6.11523 4.50781 6.2832 4.85156 6.56836 5.17969C6.85352 5.50391 7.25195 5.78516 7.76367 6.02344C8.27539 6.25781 8.88281 6.41797 9.58594 6.50391L9.04688 7.67578C8.125 7.55078 7.33203 7.30078 6.66797 6.92578C6.00781 6.55078 5.51367 6.08398 5.18555 5.52539C4.85352 6.08398 4.35938 6.55078 3.70312 6.92578C3.04688 7.30078 2.26172 7.55078 1.34766 7.67578L0.796875 6.50391C1.48828 6.41797 2.08789 6.25781 2.5957 6.02344C3.10742 5.78516 3.50586 5.50391 3.79102 5.17969C4.08008 4.85156 4.25195 4.50781 4.30664 4.14844H1.19531V2.97656H9.17578V4.14844ZM15.1613 4.32422H12.3722V5.20312H15.0558V6.33984H12.3722V7.2832C13.005 7.27539 13.5538 7.25586 14.0187 7.22461C14.4835 7.19336 14.9503 7.13672 15.4191 7.05469L15.5714 8.25C14.9816 8.35547 14.4034 8.42578 13.837 8.46094C13.2706 8.49219 12.548 8.50781 11.6691 8.50781H10.9425V3.12891H15.1613V4.32422ZM19.7316 8.92969H18.3136V6.22266H17.3878V8.84766H15.9933V2.61328H17.3878V5.02734H18.3136V2.42578H19.7316V8.92969ZM19.7316 13.0781H18.2433V10.5703H12.3605V9.375H19.7316V13.0781ZM29.5139 8.36719H26.4202V10.6406H30.5803V11.8594H20.8186V10.6406H24.9319V8.36719H21.967V3.16406H29.4319V4.35938H23.467V7.18359H29.5139V8.36719ZM35.2181 4.82812C35.2181 5.49609 35.3197 6.14258 35.5228 6.76758C35.7259 7.38867 36.0287 7.94141 36.431 8.42578C36.8373 8.90625 37.3314 9.26953 37.9134 9.51562L37.0345 10.7109C36.4408 10.4414 35.9291 10.0566 35.4994 9.55664C35.0736 9.05273 34.7357 8.46094 34.4857 7.78125C34.2357 8.52344 33.888 9.16797 33.4427 9.71484C33.0013 10.2617 32.4642 10.6797 31.8314 10.9688L30.9291 9.72656C31.5306 9.47266 32.0384 9.0957 32.4525 8.5957C32.8666 8.0918 33.1771 7.51562 33.3841 6.86719C33.5951 6.21875 33.7025 5.53906 33.7064 4.82812V3.23438H35.2181V4.82812ZM39.9994 13.1016H38.4877V2.41406H39.9994V13.1016ZM50.2856 13.0781H48.7739V2.41406H50.2856V13.0781ZM47.0864 3.52734C47.0864 4.66797 46.9321 5.70508 46.6235 6.63867C46.3188 7.57227 45.8032 8.42969 45.0766 9.21094C44.3501 9.98828 43.3716 10.668 42.1411 11.25L41.3559 10.0547C42.2661 9.625 43.0161 9.14648 43.6059 8.61914C44.1997 8.0918 44.6528 7.50781 44.9653 6.86719C45.2817 6.22266 45.4809 5.5 45.563 4.69922H41.9302V3.52734H47.0864ZM60.1734 3.75C60.1734 4.32031 60.1598 4.82422 60.1324 5.26172C60.1051 5.69922 60.0348 6.1875 59.9215 6.72656H61.3336V7.93359H51.5719V6.72656H58.4156C58.5211 6.24609 58.5914 5.80273 58.6266 5.39648C58.6617 4.98633 58.6813 4.55078 58.6852 4.08984H52.7672V2.89453H60.1734V3.75ZM60.1383 12.9609H52.732V9.05859H60.1383V12.9609ZM54.1969 11.7656H58.65V10.2305H54.1969V11.7656Z" fill="#05367B"/>
</svg>
